<?xml version="1.0" encoding="utf-8"?>
<!-- Generator: Adobe Illustrator 27.5.0, SVG Export Plug-In . SVG Version: 6.00 Build 0)  -->
<svg version="1.1" id="Capa_1" xmlns="http://www.w3.org/2000/svg" xmlns:xlink="http://www.w3.org/1999/xlink" x="0px" y="0px"
	 viewBox="0 0 425.2 425.2" style="enable-background:new 0 0 425.2 425.2;" xml:space="preserve">
<radialGradient id="SVGID_1_" cx="212.6001" cy="212.6001" r="252.4184" gradientUnits="userSpaceOnUse">
	<stop  offset="0.0303" style="stop-color:#5BCBF5"/>
	<stop  offset="0.5343" style="stop-color:#3FB9EB"/>
	<stop  offset="1" style="stop-color:#00A8E1"/>
</radialGradient>
<rect x="0.001" y="0.002" style="fill:url(#SVGID_1_);" width="425.197" height="425.197"/>
<g>
	<g>
		<ellipse style="fill:#D0DBE1;" cx="201.644" cy="369.924" rx="112.388" ry="15.576"/>
		<g>
			<rect x="113.194" y="97.897" style="fill:#A4CBE8;" width="180.048" height="269.184"/>
			<path style="fill:#FFFFFF;" d="M221.417,109.144c0,1.718-1.671,3.111-3.733,3.111h-28.933c-2.062,0-3.734-1.393-3.734-3.111
				v-0.648c0-1.718,1.672-3.11,3.734-3.11h28.933c2.062,0,3.733,1.392,3.733,3.11V109.144z"/>
			<rect x="122.511" y="120.319" style="fill:#FFFFFF;" width="161.414" height="213.969"/>
			<path style="fill:#FFFFFF;" d="M212.997,349.377c0,5.402-4.379,9.78-9.778,9.78c-5.401,0-9.78-4.378-9.78-9.78
				c0-5.399,4.379-9.778,9.78-9.778C208.618,339.599,212.997,343.978,212.997,349.377z"/>
			<path style="opacity:0.4;fill:#D6DFF1;" d="M163.284,137.21c11.374-11.373,24.338-20.911,38.36-28.39h-79.623v98.535
				C129.59,181.063,143.71,156.786,163.284,137.21z"/>
			<rect x="122.511" y="313.505" style="fill:#D7E8F3;" width="161.414" height="20.783"/>
			<g>
				<path style="fill:#8970B2;" d="M185.209,260.439c0,0-14.971-1.111-24.415,7.717c-4.415,4.127-6.104,11.465-7.671,16.164
					c-2.793,8.38-1.89,6.039,14.496,6.07C179.723,290.412,179.235,283.719,185.209,260.439z"/>
				<path style="fill:#745490;" d="M178.36,284.866c-2.108,4.041-5.016,5.535-10.742,5.524c-16.015-0.031-17.238,2.2-14.676-5.524
					H178.36z"/>
				<path style="fill:#8970B2;" d="M225.421,260.395c0,0,14.971-1.111,24.415,7.717c4.415,4.127,6.104,11.465,7.67,16.165
					c2.793,8.38,1.89,6.039-14.495,6.069C230.907,290.369,231.395,283.676,225.421,260.395z"/>
				<path style="fill:#745490;" d="M232.27,284.822c2.108,4.04,5.015,5.535,10.742,5.523c16.014-0.03,17.238,2.2,14.677-5.523
					H232.27z"/>
				<path style="fill:#FFD359;" d="M171.794,334.288h62.482c-0.032-10.899,3.595-24.475,4.429-33.897
					c1.008-11.39,1.771-22.87,0.503-29.128c-2.063-10.174-7.425-10.868-7.425-10.868h-38.711
					c-11.543-0.048-21.046,1.235-21.561,12.776c-0.308,6.883-1.634,19.552-1.407,28.827
					C170.32,310.835,172.614,324.953,171.794,334.288z"/>
				<path style="fill:#8970B2;" d="M216.362,262.18c4.917,9.937,3.424,16.464,3.459,27.463c0.019,5.857-2.912,22.7-2.774,35.843
					c0.028,2.659,0.135,5.636,0.297,8.802h19.675c-0.248-11.245,4.061-26.231,4.927-36.019c1.007-11.389,0.479-21.598-0.791-27.856
					c-2.062-10.174-9.374-10.019-9.374-10.019l-17.396-0.001C214.684,260.547,215.871,261.186,216.362,262.18z"/>
				<path style="fill:#8970B2;" d="M170.69,331.327c-0.14,1.009-0.296,1.991-0.46,2.961h24.345c0.394-3.121,0.639-6.085,0.667-8.802
					c0.139-13.143-2.739-29.986-2.773-35.843c-0.067-11.383-2.746-19.819,2.04-27.882c0.487-0.821,1.714-1.258,2.012-1.412
					l-16.012,0.045c0,0-7.313-0.155-9.375,10.019c-1.269,6.258-3.581,16.378-2.573,27.767
					C169.526,309.101,172.27,319.884,170.69,331.327z"/>
				<g>
					<path style="fill:#FACCD6;" d="M250.255,334.288h11.71c0.553-4.436,0.825-7.763,0.655-9.306
						c-1.023-9.331-8.497-34.358-8.497-34.358s-2.027-0.309-5.673-0.282c-2.756,0.02-6.026-0.026-6.026-0.026
						s6.806,26.606,8.388,36.789C250.898,327.664,250.675,330.332,250.255,334.288z"/>
				</g>
				<g>
					<path style="fill:#FACCD6;" d="M160.37,334.288c-0.416-3.931-0.638-6.582-0.552-7.141c1.582-10.184,8.388-36.789,8.388-36.789
						s-3.27,0.046-6.026,0.027c-3.646-0.027-5.673,0.282-5.673,0.282s-7.473,25.028-8.496,34.358
						c-0.169,1.538,0.1,4.848,0.648,9.262H160.37z"/>
				</g>
				<path style="fill:#F3726E;" d="M227.952,150.547c0,11.334-10.225,20.522-22.838,20.522c-12.612,0-22.837-9.188-22.837-20.522
					s10.225-20.523,22.837-20.523C217.727,130.024,227.952,139.213,227.952,150.547z"/>
				<path style="fill:#FACCD6;" d="M247.452,204.04c0-2.338-1.236-4.331-2.973-5.123c0.046-0.942,0.078-1.887,0.078-2.836
					c0-27.327-17.919-40.237-40.024-40.237c-22.105,0-40.025,12.911-40.025,40.237c0,1.077,0.04,2.148,0.1,3.217
					c-2.088,0.613-3.632,2.754-3.632,5.31c0,3.033,2.172,5.492,4.85,5.492c0.125,0,0.246-0.011,0.367-0.021
					c4.717,19.5,18.722,35.334,34.14,37.821c-0.182,3.287-0.783,8.839-2.752,12.128c-2.113,0.62-3.434,1.522-3.434,2.632
					c0,2.161,4.992,3.914,11.149,3.914c6.157,0,11.15-1.753,11.15-3.914c0-1.09-1.273-1.983-3.322-2.601
					c-1.583-3.837-1.962-9.556-2.047-12.649c14.619-3.666,27.574-19.134,31.926-37.89
					C245.475,209.405,247.452,206.999,247.452,204.04z"/>
				<path style="fill:#745490;" d="M245.176,209.435c0,1.356-1.099,2.456-2.455,2.456c-1.357,0-2.456-1.1-2.456-2.456
					c0-1.356,1.098-2.456,2.456-2.456C244.077,206.98,245.176,208.079,245.176,209.435z"/>
				<path style="fill:#745490;" d="M168.281,210.099c0,1.356-1.099,2.455-2.456,2.455c-1.356,0-2.456-1.099-2.456-2.455
					c0-1.357,1.1-2.456,2.456-2.456C167.182,207.643,168.281,208.742,168.281,210.099z"/>
				<path style="fill:#F3726E;" d="M183.524,175.542c0,0,6.768,11.953,22.839,12.756c16.071,0.804,27.101,2.848,30.398,3.802
					c3.112,0.9,5.959,2.074,7.712,7.017c0,0,6.184-46.074-37.006-46.074c0,0-44.098-7.384-44.098,46.831
					C163.37,199.873,175.049,198.242,183.524,175.542z"/>
				<g>
					<path style="fill:#FFC863;" d="M182.788,157.44l-0.512-2.221c0,0,7.592-6.897,17.902-7.659
						c12.186-0.899,17.809,2.352,27.648,7.957l-0.511,1.99C205.704,145.193,183.015,157.315,182.788,157.44z"/>
				</g>
				<path style="fill:#FFC863;" d="M201.521,150.789c0,0-2.784-12.63-11.418-11.605c-8.633,1.025-6.569,8.92,0.435,10.589
					C197.542,151.443,201.521,150.789,201.521,150.789z"/>
				<path style="fill:#FFC863;" d="M199.472,149.908c0,0,2.785-12.629,11.419-11.605c8.633,1.026,6.569,8.92-0.435,10.589
					C203.452,150.563,199.472,149.908,199.472,149.908z"/>
				<g>
					<g>
						<path style="fill:#824622;" d="M194.896,193.937c-1.138,0.322-2.203,0.508-3.267,0.696c-1.053,0.201-2.137,0.163-3.204,0.358
							c-2.125,0.377-4.204,1.128-6.112,2.283l-0.098-0.127c1.63-1.568,3.698-2.699,5.896-3.403c1.096-0.348,2.222-0.739,3.392-0.714
							c1.159,0.02,2.334,0.183,3.414,0.747L194.896,193.937z"/>
					</g>
				</g>
				<g>
					<g>
						<path style="fill:#824622;" d="M213.12,193.847c1.074-0.576,2.247-0.751,3.405-0.784c1.169-0.039,2.299,0.341,3.399,0.677
							c2.206,0.681,4.286,1.789,5.933,3.339l-0.097,0.129c-1.921-1.135-4.008-1.863-6.136-2.218
							c-1.069-0.184-2.152-0.134-3.208-0.324c-1.066-0.176-2.133-0.35-3.274-0.66L213.12,193.847z"/>
					</g>
				</g>
				<path style="fill:#F5E1EA;" d="M195.322,219.657c0,3.309-4.107,5.992-9.173,5.992c-5.067,0-9.174-2.683-9.174-5.992
					c0-3.309,4.107-5.992,9.174-5.992C191.215,213.665,195.322,216.349,195.322,219.657z"/>
				<path style="fill:#F5E1EA;" d="M233.825,219.657c0,3.309-4.107,5.992-9.174,5.992c-5.067,0-9.173-2.683-9.173-5.992
					c0-3.309,4.106-5.992,9.173-5.992C229.718,213.665,233.825,216.349,233.825,219.657z"/>
			</g>
			<path style="fill:#DAE5EB;" d="M262.735,97.897c3.064,14.134,4.665,28.627,4.665,43.244c0,19.969-2.97,39.712-8.619,58.61
				c-8.91,36.112-27.531,69.583-54.12,96.171c-25.432,25.431-57.156,43.572-91.467,52.897v18.262h180.048V97.897H262.735z"/>
		</g>
		<g>
			<g>
				<path style="fill:#FFC863;" d="M293.243,53.504c-35.268,0-63.857,23.298-63.857,52.031c0,20.458,10.379,37.905,31.454,46.404
					l-12.789,24.879l35.419-19.857c3.188,0.4,6.449,0.608,9.773,0.608c35.27,0,63.855-23.298,63.855-52.035
					C357.098,76.802,328.513,53.504,293.243,53.504z"/>
				<path style="fill:#FFFFFF;" d="M272.184,104.371c0,5.328-4.319,9.648-9.647,9.648s-9.647-4.32-9.647-9.648
					c0-5.328,4.319-9.647,9.647-9.647S272.184,99.044,272.184,104.371z"/>
				<path style="fill:#FFFFFF;" d="M302.891,104.371c0,5.328-4.32,9.648-9.648,9.648c-5.328,0-9.647-4.32-9.647-9.648
					c0-5.328,4.319-9.647,9.647-9.647C298.571,94.724,302.891,99.044,302.891,104.371z"/>
				<path style="fill:#FFFFFF;" d="M333.595,104.371c0,5.328-4.319,9.648-9.647,9.648c-5.328,0-9.647-4.32-9.647-9.648
					c0-5.328,4.318-9.647,9.647-9.647C329.275,94.724,333.595,99.044,333.595,104.371z"/>
			</g>
			<g>
				<g>
					<path style="fill:#E6E4D1;" d="M340.342,70.408c-7.523,40.105-43.344,71.24-85.368,71.24c-3.878,0-7.691-0.291-11.447-0.803
						c4.631,4.52,10.379,8.298,17.312,11.094l-12.789,24.879l35.419-19.857c3.188,0.4,6.449,0.608,9.773,0.608
						c35.27,0,63.855-23.298,63.855-52.035C357.098,91.995,350.745,79.665,340.342,70.408z"/>
				</g>
			</g>
			<g style="opacity:0.3;">
				<g>
					<path style="fill:#FFFFFF;" d="M299.532,72.59c-5.633-2.893-12.297-4.572-19.45-4.572c-20.189,0-36.555,13.335-36.555,29.785
						c0,6.516,1.851,12.494,5.559,17.359C254.191,91.723,274.952,73.588,299.532,72.59z"/>
				</g>
			</g>
		</g>
	</g>
	<g>
		<g>
			
				<line style="fill:none;stroke:#FFFFFF;stroke-width:2.2095;stroke-linecap:round;stroke-linejoin:round;" x1="83.568" y1="184.069" x2="84.25" y2="184.069"/>
			
				<line style="fill:none;stroke:#FFFFFF;stroke-width:2.2095;stroke-linecap:round;stroke-linejoin:round;stroke-dasharray:1.4584,3.646;" x1="87.896" y1="184.069" x2="111.595" y2="184.069"/>
			
				<line style="fill:none;stroke:#FFFFFF;stroke-width:2.2095;stroke-linecap:round;stroke-linejoin:round;" x1="113.417" y1="184.069" x2="114.1" y2="184.069"/>
		</g>
	</g>
	<g>
		<g>
			
				<line style="fill:none;stroke:#FFFFFF;stroke-width:2.2095;stroke-linecap:round;stroke-linejoin:round;" x1="342.188" y1="261.067" x2="342.87" y2="261.067"/>
			
				<line style="fill:none;stroke:#FFFFFF;stroke-width:2.2095;stroke-linecap:round;stroke-linejoin:round;stroke-dasharray:1.4584,3.646;" x1="346.516" y1="261.067" x2="370.215" y2="261.067"/>
			
				<line style="fill:none;stroke:#FFFFFF;stroke-width:2.2095;stroke-linecap:round;stroke-linejoin:round;" x1="372.038" y1="261.067" x2="372.72" y2="261.067"/>
		</g>
	</g>
	<g>
		<g>
			
				<line style="fill:none;stroke:#FFFFFF;stroke-width:2.2095;stroke-linecap:round;stroke-linejoin:round;" x1="323.569" y1="171.069" x2="324.251" y2="171.069"/>
			
				<line style="fill:none;stroke:#FFFFFF;stroke-width:2.2095;stroke-linecap:round;stroke-linejoin:round;stroke-dasharray:1.4584,3.646;" x1="327.897" y1="171.069" x2="351.596" y2="171.069"/>
			
				<line style="fill:none;stroke:#FFFFFF;stroke-width:2.2095;stroke-linecap:round;stroke-linejoin:round;" x1="353.418" y1="171.069" x2="354.101" y2="171.069"/>
		</g>
	</g>
	<g>
		<g>
			
				<line style="fill:none;stroke:#FFFFFF;stroke-width:2.2095;stroke-linecap:round;stroke-linejoin:round;" x1="76.669" y1="70.553" x2="77.351" y2="70.553"/>
			
				<line style="fill:none;stroke:#FFFFFF;stroke-width:2.2095;stroke-linecap:round;stroke-linejoin:round;stroke-dasharray:1.4584,3.646;" x1="80.997" y1="70.553" x2="104.696" y2="70.553"/>
			
				<line style="fill:none;stroke:#FFFFFF;stroke-width:2.2095;stroke-linecap:round;stroke-linejoin:round;" x1="106.519" y1="70.553" x2="107.201" y2="70.553"/>
		</g>
	</g>
	<g>
		<path style="fill:#FFFFFF;" d="M64.212,241.936c0-0.245,0.007-0.488,0.019-0.73l-3.778-0.197
			c-0.016,0.307-0.024,0.616-0.024,0.924c0,0.258,0.006,0.515,0.017,0.77l3.778-0.167C64.216,242.338,64.212,242.139,64.212,241.936
			z"/>
		<path style="fill:#FFFFFF;" d="M64.772,245.797l-3.625,1.083c0.162,0.542,0.353,1.082,0.565,1.602l3.501-1.434
			C65.048,246.642,64.899,246.221,64.772,245.797z"/>
		<path style="fill:#FFFFFF;" d="M68.058,256.269c0.468,0.315,0.957,0.611,1.452,0.878l1.797-3.329
			c-0.387-0.209-0.769-0.44-1.135-0.687L68.058,256.269z"/>
		<path style="fill:#FFFFFF;" d="M63.789,252.174c0.336,0.456,0.696,0.897,1.072,1.316l2.812-2.531
			c-0.294-0.327-0.577-0.673-0.839-1.029L63.789,252.174z"/>
		<path style="fill:#FFFFFF;" d="M63.887,231.565l3.024,2.273c0.265-0.352,0.55-0.696,0.849-1.021l-2.788-2.557
			C64.591,230.676,64.227,231.114,63.887,231.565z"/>
		<path style="fill:#FFFFFF;" d="M90.451,237.502l3.573-1.242c-0.184-0.53-0.399-1.061-0.637-1.575l-3.433,1.589
			C90.14,236.675,90.308,237.089,90.451,237.502z"/>
		<path style="fill:#FFFFFF;" d="M65.263,236.704l-3.488-1.464c-0.219,0.522-0.414,1.059-0.58,1.595l3.615,1.116
			C64.939,237.533,65.091,237.114,65.263,236.704z"/>
		<path style="fill:#FFFFFF;" d="M91.172,241.393c0.007,0.182,0.024,0.362,0.024,0.543c0,0.284-0.021,0.569-0.042,0.853l3.761,0.457
			c0.033-0.435,0.063-0.873,0.063-1.31c0-0.254-0.022-0.508-0.033-0.763L91.172,241.393z"/>
		<path style="fill:#FFFFFF;" d="M91.149,231.087c-0.356-0.439-0.736-0.865-1.129-1.265l-2.697,2.652
			c0.307,0.313,0.605,0.647,0.884,0.992L91.149,231.087z"/>
		<path style="fill:#FFFFFF;" d="M79.126,228.518c0.44,0.046,0.88,0.114,1.309,0.202l0.763-3.704
			c-0.552-0.115-1.116-0.201-1.679-0.26L79.126,228.518z"/>
		<path style="fill:#FFFFFF;" d="M68.193,227.513l2.086,3.155c0.366-0.243,0.75-0.47,1.141-0.676l-1.765-3.345
			C69.155,226.911,68.663,227.202,68.193,227.513z"/>
		<path style="fill:#FFFFFF;" d="M87.232,251.489l2.671,2.678c0.399-0.398,0.784-0.82,1.141-1.255l-2.919-2.405
			C87.844,250.847,87.544,251.178,87.232,251.489z"/>
		<path style="fill:#FFFFFF;" d="M89.9,247.715l3.419,1.62c0.242-0.512,0.461-1.039,0.651-1.568l-3.561-1.277
			C90.261,246.903,90.09,247.315,89.9,247.715z"/>
		<path style="fill:#FFFFFF;" d="M83.451,254.146l1.613,3.422c0.51-0.241,1.015-0.51,1.499-0.8l-1.942-3.246
			C84.243,253.749,83.85,253.958,83.451,254.146z"/>
		<path style="fill:#FFFFFF;" d="M83.568,229.78c0.395,0.191,0.787,0.405,1.164,0.635l1.973-3.227
			c-0.482-0.294-0.983-0.568-1.492-0.815L83.568,229.78z"/>
		<path style="fill:#FFFFFF;" d="M78.998,255.367l0.357,3.766c0.562-0.053,1.127-0.135,1.681-0.244l-0.726-3.713
			C79.877,255.261,79.436,255.325,78.998,255.367z"/>
		<path style="fill:#FFFFFF;" d="M73.461,258.686c0.545,0.137,1.105,0.25,1.664,0.334l0.562-3.741
			c-0.438-0.065-0.875-0.153-1.3-0.261L73.461,258.686z"/>
		<path style="fill:#FFFFFF;" d="M73.62,225.148l0.89,3.676c0.429-0.104,0.868-0.187,1.303-0.249l-0.525-3.746
			C74.73,224.907,74.169,225.015,73.62,225.148z"/>
	</g>
	<g>
		<path style="fill:#FFFFFF;" d="M307.089,303.21c0-0.245,0.007-0.488,0.019-0.73l-3.778-0.197
			c-0.016,0.307-0.024,0.616-0.024,0.924c0,0.258,0.006,0.515,0.017,0.771l3.778-0.167
			C307.094,303.612,307.089,303.413,307.089,303.21z"/>
		<path style="fill:#FFFFFF;" d="M307.65,307.071l-3.625,1.083c0.162,0.543,0.353,1.082,0.565,1.602l3.501-1.434
			C307.925,307.916,307.776,307.495,307.65,307.071z"/>
		<path style="fill:#FFFFFF;" d="M310.935,317.543c0.468,0.315,0.957,0.611,1.452,0.878l1.797-3.329
			c-0.387-0.209-0.769-0.44-1.135-0.687L310.935,317.543z"/>
		<path style="fill:#FFFFFF;" d="M306.667,313.448c0.336,0.456,0.696,0.897,1.072,1.316l2.812-2.531
			c-0.294-0.327-0.577-0.673-0.839-1.029L306.667,313.448z"/>
		<path style="fill:#FFFFFF;" d="M306.765,292.839l3.024,2.273c0.265-0.353,0.55-0.696,0.849-1.021l-2.788-2.557
			C307.468,291.95,307.104,292.388,306.765,292.839z"/>
		<path style="fill:#FFFFFF;" d="M333.329,298.776l3.573-1.242c-0.184-0.53-0.398-1.06-0.637-1.575l-3.433,1.589
			C333.018,297.949,333.186,298.363,333.329,298.776z"/>
		<path style="fill:#FFFFFF;" d="M308.141,297.978l-3.488-1.464c-0.219,0.522-0.415,1.059-0.581,1.595l3.615,1.116
			C307.817,298.807,307.969,298.388,308.141,297.978z"/>
		<path style="fill:#FFFFFF;" d="M334.05,302.667c0.007,0.182,0.023,0.362,0.023,0.543c0,0.284-0.021,0.569-0.041,0.853l3.761,0.457
			c0.033-0.435,0.063-0.872,0.063-1.31c0-0.254-0.022-0.508-0.033-0.763L334.05,302.667z"/>
		<path style="fill:#FFFFFF;" d="M334.027,292.361c-0.355-0.439-0.736-0.865-1.129-1.265l-2.697,2.652
			c0.307,0.313,0.605,0.647,0.884,0.992L334.027,292.361z"/>
		<path style="fill:#FFFFFF;" d="M322.003,289.792c0.439,0.046,0.88,0.114,1.309,0.202l0.763-3.704
			c-0.552-0.115-1.116-0.201-1.679-0.26L322.003,289.792z"/>
		<path style="fill:#FFFFFF;" d="M311.07,288.787l2.086,3.155c0.366-0.243,0.749-0.47,1.141-0.676l-1.765-3.345
			C312.033,288.185,311.541,288.476,311.07,288.787z"/>
		<path style="fill:#FFFFFF;" d="M330.109,312.763l2.671,2.678c0.399-0.397,0.784-0.82,1.141-1.255l-2.919-2.405
			C330.722,312.121,330.422,312.452,330.109,312.763z"/>
		<path style="fill:#FFFFFF;" d="M332.777,308.989l3.419,1.62c0.242-0.512,0.461-1.039,0.651-1.568l-3.561-1.277
			C333.138,308.177,332.967,308.589,332.777,308.989z"/>
		<path style="fill:#FFFFFF;" d="M326.329,315.42l1.613,3.422c0.51-0.241,1.015-0.51,1.499-0.8l-1.942-3.246
			C327.121,315.023,326.727,315.232,326.329,315.42z"/>
		<path style="fill:#FFFFFF;" d="M326.445,291.054c0.396,0.191,0.787,0.405,1.164,0.635l1.973-3.227
			c-0.482-0.294-0.983-0.568-1.492-0.814L326.445,291.054z"/>
		<path style="fill:#FFFFFF;" d="M321.875,316.641l0.357,3.766c0.562-0.053,1.127-0.135,1.681-0.244l-0.726-3.713
			C322.755,316.535,322.313,316.599,321.875,316.641z"/>
		<path style="fill:#FFFFFF;" d="M316.338,319.96c0.545,0.137,1.105,0.25,1.665,0.334l0.562-3.741
			c-0.438-0.065-0.875-0.153-1.3-0.261L316.338,319.96z"/>
		<path style="fill:#FFFFFF;" d="M316.498,286.421l0.89,3.676c0.429-0.103,0.868-0.187,1.303-0.249l-0.525-3.746
			C317.607,286.181,317.046,286.289,316.498,286.421z"/>
	</g>
	<g>
		<path style="fill:#FFFFFF;" d="M166.677,76.396c0-0.245,0.007-0.488,0.019-0.73l-3.778-0.197
			c-0.016,0.307-0.024,0.616-0.024,0.924c0,0.258,0.006,0.515,0.017,0.771l3.778-0.167
			C166.681,76.797,166.677,76.599,166.677,76.396z"/>
		<path style="fill:#FFFFFF;" d="M167.237,80.257l-3.625,1.083c0.162,0.542,0.353,1.082,0.565,1.602l3.501-1.434
			C167.513,81.102,167.364,80.681,167.237,80.257z"/>
		<path style="fill:#FFFFFF;" d="M170.522,90.728c0.468,0.316,0.957,0.611,1.452,0.879l1.797-3.329
			c-0.387-0.209-0.769-0.44-1.135-0.687L170.522,90.728z"/>
		<path style="fill:#FFFFFF;" d="M166.254,86.634c0.336,0.456,0.696,0.898,1.072,1.316l2.812-2.531
			c-0.294-0.327-0.577-0.673-0.839-1.029L166.254,86.634z"/>
		<path style="fill:#FFFFFF;" d="M166.352,66.024l3.024,2.273c0.265-0.353,0.55-0.696,0.849-1.021l-2.788-2.557
			C167.056,65.135,166.691,65.574,166.352,66.024z"/>
		<path style="fill:#FFFFFF;" d="M192.916,71.961l3.573-1.242c-0.184-0.53-0.398-1.061-0.637-1.575l-3.433,1.589
			C192.605,71.135,192.773,71.548,192.916,71.961z"/>
		<path style="fill:#FFFFFF;" d="M167.728,71.164L164.24,69.7c-0.219,0.522-0.415,1.059-0.581,1.595l3.615,1.116
			C167.404,71.993,167.556,71.573,167.728,71.164z"/>
		<path style="fill:#FFFFFF;" d="M193.637,75.853c0.007,0.182,0.023,0.362,0.023,0.543c0,0.284-0.021,0.569-0.042,0.853l3.761,0.457
			c0.033-0.435,0.063-0.873,0.063-1.31c0-0.254-0.022-0.508-0.033-0.763L193.637,75.853z"/>
		<path style="fill:#FFFFFF;" d="M193.614,65.547c-0.355-0.439-0.736-0.865-1.129-1.265l-2.697,2.652
			c0.307,0.313,0.605,0.647,0.884,0.992L193.614,65.547z"/>
		<path style="fill:#FFFFFF;" d="M181.591,62.977c0.439,0.046,0.88,0.114,1.309,0.202l0.763-3.704
			c-0.552-0.115-1.116-0.201-1.679-0.26L181.591,62.977z"/>
		<path style="fill:#FFFFFF;" d="M170.658,61.973l2.086,3.155c0.366-0.243,0.75-0.47,1.141-0.676l-1.765-3.345
			C171.62,61.371,171.128,61.662,170.658,61.973z"/>
		<path style="fill:#FFFFFF;" d="M189.697,85.948l2.671,2.678c0.399-0.398,0.784-0.82,1.141-1.255l-2.919-2.405
			C190.309,85.306,190.009,85.637,189.697,85.948z"/>
		<path style="fill:#FFFFFF;" d="M192.365,82.174l3.419,1.62c0.242-0.512,0.461-1.039,0.651-1.568l-3.561-1.277
			C192.725,81.362,192.555,81.774,192.365,82.174z"/>
		<path style="fill:#FFFFFF;" d="M185.916,88.605l1.613,3.422c0.51-0.241,1.015-0.51,1.499-0.8l-1.942-3.246
			C186.708,88.209,186.314,88.418,185.916,88.605z"/>
		<path style="fill:#FFFFFF;" d="M186.033,64.24c0.396,0.191,0.787,0.405,1.163,0.635l1.973-3.226
			c-0.482-0.294-0.983-0.568-1.492-0.814L186.033,64.24z"/>
		<path style="fill:#FFFFFF;" d="M181.463,89.826l0.357,3.766c0.562-0.053,1.127-0.135,1.681-0.244l-0.726-3.713
			C182.342,89.721,181.9,89.785,181.463,89.826z"/>
		<path style="fill:#FFFFFF;" d="M175.926,93.145c0.545,0.137,1.105,0.25,1.665,0.334l0.562-3.741
			c-0.437-0.065-0.875-0.153-1.3-0.261L175.926,93.145z"/>
		<path style="fill:#FFFFFF;" d="M176.085,59.607l0.89,3.676c0.429-0.104,0.868-0.187,1.303-0.249l-0.525-3.746
			C177.195,59.366,176.634,59.474,176.085,59.607z"/>
	</g>
	<path style="fill:none;stroke:#FFFFFF;stroke-width:1.9289;stroke-linecap:round;stroke-linejoin:round;stroke-miterlimit:10;" d="
		M80.761,114.637c0,2.732-2.215,4.947-4.947,4.947c-2.733,0-4.947-2.215-4.947-4.947c0-2.733,2.214-4.947,4.947-4.947
		C78.546,109.69,80.761,111.904,80.761,114.637z"/>
	<path style="fill:none;stroke:#FFFFFF;stroke-width:1.9289;stroke-linecap:round;stroke-linejoin:round;stroke-miterlimit:10;" d="
		M254.675,48.557c0,2.732-2.215,4.947-4.947,4.947c-2.733,0-4.947-2.215-4.947-4.947c0-2.733,2.214-4.947,4.947-4.947
		C252.46,43.609,254.675,45.824,254.675,48.557z"/>
	<path style="fill:none;stroke:#FFFFFF;stroke-width:1.9289;stroke-linecap:round;stroke-linejoin:round;stroke-miterlimit:10;" d="
		M76.367,312.984c0,2.732-2.215,4.947-4.947,4.947c-2.733,0-4.947-2.215-4.947-4.947c0-2.733,2.214-4.947,4.947-4.947
		C74.152,308.037,76.367,310.251,76.367,312.984z"/>
	<path style="fill:none;stroke:#FFFFFF;stroke-width:1.9289;stroke-linecap:round;stroke-linejoin:round;stroke-miterlimit:10;" d="
		M362.401,71.961c0,2.732-2.215,4.947-4.947,4.947c-2.733,0-4.947-2.215-4.947-4.947c0-2.733,2.214-4.947,4.947-4.947
		C360.187,67.014,362.401,69.229,362.401,71.961z"/>
	<path style="fill:none;stroke:#FFFFFF;stroke-width:1.9289;stroke-linecap:round;stroke-linejoin:round;stroke-miterlimit:10;" d="
		M343.782,224.755c0,2.732-2.215,4.947-4.947,4.947c-2.733,0-4.947-2.215-4.947-4.947c0-2.733,2.214-4.947,4.947-4.947
		C341.567,219.808,343.782,222.023,343.782,224.755z"/>
</g>
</svg>
