<?xml version="1.0" encoding="utf-8"?>
<!-- Generator: Adobe Illustrator 27.5.0, SVG Export Plug-In . SVG Version: 6.00 Build 0)  -->
<svg version="1.1" id="Ñëîé_1" xmlns="http://www.w3.org/2000/svg" xmlns:xlink="http://www.w3.org/1999/xlink" x="0px" y="0px"
	 viewBox="0 0 2000 2300" style="enable-background:new 0 0 2000 2300;" xml:space="preserve">
<rect id="_x37_" style="fill:#FFFFFF;" width="2000" height="2300"/>
<g>
	<ellipse id="_x36_" style="fill:#A2C3F2;" cx="1000" cy="1150" rx="900.858" ry="1015.194"/>
	<g id="_x35_">
		<path style="fill:#F69D85;" d="M781.567,1157.141c157.174-139.089,319.399-272.277,488.029-397.38
			c56.53-41.496,114.078-81.935,173.071-120.817c31.914-21.035,74.839-12.215,95.873,19.699
			c20.091,30.436,12.911,70.975-15.427,92.825c-52.751,41.788-104.513,85.321-155.492,130.049
			c-146.327,129.581-286.651,266.676-421.909,407.861C849.135,1420.375,668.754,1273.681,781.567,1157.141z"/>
		<g>
			<path style="fill:#997243;" d="M209.51,1731.242c0,0,485.128-88.855,942.334,317.47
				C1151.844,2048.712,508.48,2197.402,209.51,1731.242z"/>
			<path style="fill:#F69D85;" d="M1199.98,1709.32c-3.82,7.31-7.6,14.62-11.33,21.92c-44.29,86.5-82.8,172.37-115.61,252.37
				c-8.84,21.52-17.25,42.61-25.26,63.17c-2.41,6.21-4.79,12.36-7.13,18.47c-13.49,35.17-25.73,68.66-36.75,99.93
				c-18.26,51.86-33.15,97.61-44.7,134.82H109.04v-149.35c60.99-104.18,123.53-208.08,186.77-310.07
				c6.39-10.3,12.78-20.58,19.18-30.84c0.05-0.07,0.09-0.14,0.13-0.21c17.95-28.78,35.95-57.39,53.99-85.79
				c8.12-12.81,16.26-25.57,24.4-38.29c35.13-54.86,59.64-92.07,70.29-108.15c10.06-76,23.49-177.53,36.03-272.33
				c0.18-1.35,0.36-2.7,0.54-4.04c0.2-1.5,0.4-3,0.6-4.5c7.31-55.28,14.27-107.92,20.03-151.44c0.54-4.08,1.07-8.09,1.59-12
				c1.4-10.54,2.71-20.46,3.93-29.66c0.55-4.15,1.08-8.15,1.58-12c1.5-11.34,2.82-21.3,3.93-29.66c0.59-4.47,1.12-8.48,1.59-12
				c1.46-11.07,2.27-17.19,2.27-17.19c9.72-75.17,107.86-79.66,136.62-24.82c5.1,9.73,8.02,21.34,7.87,34.75
				c0,0-0.01,2.52-0.04,7.26c-0.02,3.09-0.04,7.11-0.07,12c-0.04,7.81-0.1,17.81-0.17,29.66c-0.02,3.81-0.04,7.81-0.06,12
				c-0.05,9.07-0.11,19-0.17,29.66c-0.02,3.9-0.04,7.9-0.07,12c-0.26,47.02-0.6,106.29-0.95,169.27c-0.01,1.57-0.02,3.15-0.03,4.73
				v0.49c-0.56,98.62-1.16,205.72-1.63,288.89c10.52,2.03,22.04,4.26,34.35,6.63c71.49,13.81,169.9,32.81,257,49.63
				c47.46,9.16,91.57,17.68,126.13,24.36c3.09,0.6,6.11,1.18,9.04,1.75l0.03,0.01L1199.98,1709.32z"/>
			<path style="fill:#EA8973;" d="M536.187,1151.138c-2.068,0-4.165-0.098-6.3-0.297c-3.579-0.333-6.211-3.505-5.878-7.085
				c0.333-3.579,3.496-6.216,7.085-5.878c28.536,2.667,49.14-17.195,52.477-50.576l10.687-106.929
				c0.358-3.577,3.556-6.187,7.124-5.83c3.577,0.357,6.187,3.547,5.83,7.124l-10.688,106.929
				C592.711,1126.74,568.798,1151.138,536.187,1151.138z"/>
			<path style="fill:#FFB12A;" d="M1151.84,2048.72c-10.33,45.27-18.1,79.62-24.1,106.34c-21.31,94.93-20.26,93.77-32.17,144.94H0
				v-228.73c33.15-61.21,175.12-282.38,209.51-340.03c33.6,27.92,68.83,54.1,105.48,78.5c0.2,0.14,0.4,0.27,0.6,0.4
				c212.33,141.23,471.8,222.76,732.19,236.64c34.7,1.86,69.42,2.51,104.04,1.94C1151.83,2048.72,1151.83,2048.72,1151.84,2048.72z"
				/>
			<path style="fill:#EA8973;" d="M891.097,1854.036c-3.582,0-7.03-1.978-8.741-5.4c-24.23-48.458-71.282-110.88-71.755-111.504
				c-3.252-4.301-2.402-10.425,1.899-13.677c4.302-3.251,10.424-2.402,13.677,1.898c1.973,2.609,48.601,64.464,73.645,114.551
				c2.412,4.822,0.457,10.688-4.366,13.1C894.054,1853.704,892.563,1854.036,891.097,1854.036z"/>
		</g>
		<g>
			<path style="fill:#30313C;" d="M672.515,1625.157V602.107c0-58.59,47.496-106.086,106.086-106.086h502.011
				c58.589,0,106.086,47.496,106.086,106.086v1023.049c0,58.589-47.496,106.086-106.086,106.086H778.601
				C720.011,1731.242,672.515,1683.746,672.515,1625.157z"/>
			<path style="fill:#F1F3F2;" d="M1283.765,1664.629H775.448c-36.423,0-65.949-29.526-65.949-65.949V628.584
				c0-36.423,29.526-65.949,65.949-65.949h508.316c36.423,0,65.949,29.526,65.949,65.949v970.096
				C1349.714,1635.102,1320.187,1664.629,1283.765,1664.629z"/>
			<path style="fill:#99A7D8;" d="M1041.934,529.966c0,6.809-5.52,12.328-12.328,12.328s-12.328-5.52-12.328-12.328
				c0-6.809,5.519-12.328,12.328-12.328S1041.934,523.157,1041.934,529.966z"/>
			<path style="fill:#99A7D8;" d="M1098.03,1709.329H961.181c-5.616,0-10.168-4.552-10.168-10.168l0,0
				c0-5.616,4.552-10.168,10.168-10.168h136.849c5.616,0,10.168,4.552,10.168,10.168l0,0
				C1108.198,1704.776,1103.646,1709.329,1098.03,1709.329z"/>
		</g>
		<g>
			<path style="fill:#F69D85;" d="M1367.783,1362.882c-69.515,1.748-100.813-94.054-41.944-133.306
				c50.912-34.479,120.452-104.118,174.33-32.275c48.755,75.419-40.598,116.559-90.57,152.413
				C1396.844,1358.611,1382.238,1362.882,1367.783,1362.882z"/>
			<path style="fill:#F69D85;" d="M1356.085,1212.076c-69.513,1.746-100.816-94.052-41.944-133.307
				c-0.003,0.001,91.762-63.98,91.762-63.98c79.864-53.693,161.807,63.731,83.764,120.141
				C1462.087,1150.006,1389.937,1216.577,1356.085,1212.076z"/>
			<path style="fill:#F69D85;" d="M1340.476,1057.158c-69.512,1.746-100.816-94.052-41.944-133.306
				c-0.003,0.001,92.567-64.543,92.567-64.543c79.865-53.693,161.806,63.732,83.763,120.141
				C1447.235,994.53,1374.368,1061.684,1340.476,1057.158z"/>
			<path style="fill:#EA8973;" d="M1347.619,1356.218c-2.036,0-4.042-0.953-5.311-2.739c-2.083-2.929-1.396-6.993,1.534-9.077
				l46.372-32.966c6.662-4.736,11.022-11.792,12.277-19.869c1.255-8.078-0.759-16.125-5.67-22.66
				c-9.507-12.649-27.308-15.743-40.524-7.044l-46.095,30.335c-3.004,1.975-7.038,1.143-9.016-1.86
				c-1.976-3.003-1.144-7.039,1.859-9.016l46.095-30.335c18.944-12.467,44.459-8.034,58.086,10.097
				c7.04,9.367,9.927,20.902,8.128,32.48c-1.799,11.578-8.048,21.693-17.598,28.482l-46.372,32.966
				C1350.241,1355.827,1348.924,1356.218,1347.619,1356.218z"/>
			<path style="fill:#EA8973;" d="M1328.865,1201.063c-2.235,0.001-4.41-1.15-5.621-3.217c-1.819-3.101-0.779-7.089,2.322-8.908
				l44.838-26.295c7.051-4.135,12.011-10.784,13.968-18.72c1.957-7.936,0.654-16.128-3.666-23.068
				c-8.362-13.429-25.823-18.07-39.752-10.563l-43.183,23.281c-3.165,1.707-7.112,0.525-8.818-2.64
				c-1.706-3.165-0.524-7.113,2.64-8.819l43.183-23.282c19.965-10.761,44.994-4.112,56.982,15.14
				c6.193,9.946,8.059,21.689,5.255,33.065c-2.805,11.376-9.916,20.906-20.023,26.833l-44.838,26.295
				C1331.117,1200.775,1329.984,1201.063,1328.865,1201.063z"/>
			<path style="fill:#EA8973;" d="M1314.869,1047.068c-2.235,0.001-4.41-1.15-5.621-3.217c-1.819-3.101-0.779-7.089,2.322-8.908
				l45.672-26.784c7.051-4.135,12.011-10.784,13.968-18.72c1.956-7.936,0.654-16.129-3.666-23.068
				c-8.363-13.43-25.822-18.071-39.752-10.562l-45.583,24.575c-3.164,1.708-7.113,0.525-8.819-2.64
				c-1.706-3.165-0.524-7.113,2.64-8.819l45.583-24.575c19.965-10.764,44.993-4.112,56.982,15.14
				c6.193,9.946,8.059,21.689,5.255,33.065c-2.805,11.376-9.916,20.906-20.023,26.833l-45.672,26.784
				C1317.121,1046.779,1315.987,1047.068,1314.869,1047.068z"/>
		</g>
	</g>
	<g id="_x34_">
		<path style="fill:#305777;" d="M857.48,1090.78c-5.5-48.22-34.28-92.98-82.4-127.51c-19.69-14.13-41.77-25.93-65.58-35.19
			c-3.42-1.34-6.88-2.61-10.37-3.84c-8.67-3.05-17.55-5.78-26.62-8.15c-30.94-8.17-63.97-12.42-97.9-12.42
			c-75.7,0-146.89,21.16-200.46,59.6c-53.78,38.58-83.39,89.93-83.39,144.61c0,54.67,29.61,106.03,83.39,144.61
			c2.09,1.5,4.21,2.97,6.35,4.41c34.2,23.09,75.03,39.43,119.33,48.07c24.07,4.7,49.17,7.12,74.78,7.12
			c27.15,0,54.04-2.76,79.93-8.22c0.19-0.04,0.38-0.08,0.57-0.12l17.4,11.19l6.31,4.05l30.68,19.73l30.67,19.71l19.03,12.24
			c0.33,0.21,0.7,0.32,1.08,0.32c0.39,0,0.79-0.12,1.13-0.35c0.66-0.46,0.99-1.26,0.83-2.05l-19.61-96.09
			c2.8-1.48,5.55-2.99,8.27-4.56c31.18-17.8,57.15-40.37,75.52-65.69c20.96-28.9,32.04-61.53,32.04-94.37
			C858.46,1102.14,858.13,1096.43,857.48,1090.78z M749.65,1264.05c-3.33,1.92-6.74,3.79-10.21,5.6c-0.79,0.42-1.21,1.3-1.03,2.18
			l18.96,92.91l-18.32-11.78l-29.55-19l-30.65-19.7l-6.34-4.08l-15.93-10.24c-0.33-0.21-0.7-0.32-1.08-0.32
			c-0.14,0-0.28,0.02-0.42,0.05c-1.78,0.38-3.57,0.75-5.36,1.1c-24.39,4.86-49.62,7.32-75.11,7.32c-25.69,0-50.59-2.49-74.24-7.16
			c-24.69-4.86-48.03-12.09-69.5-21.33c-81.48-35.03-136.11-98.89-136.11-171.72c0-110.4,125.54-200.21,279.85-200.21
			c34.42,0,67.41,4.47,97.9,12.64c12.8,3.43,25.16,7.51,36.99,12.19c13.75,5.43,26.79,11.67,39,18.63
			c59.77,33.99,99.73,85.08,105.28,142.84c0.45,4.6,0.68,9.23,0.68,13.91C854.46,1168.47,815.51,1226.18,749.65,1264.05z"/>
		<path style="fill:#3E8EDD;" d="M836.464,1097.879c0-111.679-126.189-202.213-281.852-202.213
			c-155.662,0-281.852,90.534-281.852,202.213s126.19,202.213,281.852,202.213c28.116,0,55.262-2.968,80.885-8.466l104.781,67.363
			l-19.912-97.561C790.724,1224.66,836.464,1165.106,836.464,1097.879z"/>
		<path style="fill:#FFFFFF;" d="M736.867,1061.668H372.359c-3.314,0-6-2.687-6-6c0-3.314,2.686-6,6-6h364.508c3.313,0,6,2.686,6,6
			C742.867,1058.981,740.18,1061.668,736.867,1061.668z"/>
		<path style="fill:#FFFFFF;" d="M736.867,1103.327H372.359c-3.314,0-6-2.687-6-6s2.686-6,6-6h364.508c3.313,0,6,2.687,6,6
			S740.18,1103.327,736.867,1103.327z"/>
		<path style="fill:#FFFFFF;" d="M736.867,1144.986H372.359c-3.314,0-6-2.687-6-6s2.686-6,6-6h364.508c3.313,0,6,2.687,6,6
			S740.18,1144.986,736.867,1144.986z"/>
	</g>
	<g id="_x33_">
		<path style="fill:#9B453A;" d="M1635.41,319.96c-53.57-38.43-124.76-59.6-200.46-59.6h-0.64c-43.63,0.07-85.75,7.17-123.84,20.56
			c-27.8,9.76-53.46,22.87-75.99,39.04c-53.77,38.58-83.38,89.94-83.38,144.61c0,10.54,1.14,21.07,3.39,31.45
			c4.74,21.96,14.42,43.3,28.65,62.92c0.9,1.24,1.81,2.47,2.76,3.69c19.82,26.02,47.74,48.95,81.03,66.56l-19.61,96.09
			c-0.16,0.79,0.17,1.6,0.83,2.05c0.34,0.24,0.74,0.35,1.13,0.35c0.38,0,0.75-0.1,1.08-0.31l19.03-12.24l80.32-51.63l4.74-3.05
			c0.19,0.04,0.37,0.08,0.56,0.12c10.41,2.2,21,3.95,31.69,5.26c4.53,0.57,9.08,1.05,13.64,1.44c11.45,1.02,23.01,1.52,34.61,1.52
			c35.2,0,69.42-4.57,101.35-13.34c34.02-9.33,65.44-23.42,92.66-41.79h0.01c2.17-1.47,4.32-2.96,6.44-4.48
			c34.49-24.74,59.05-54.74,72.22-87.5c7.36-18.32,11.17-37.5,11.17-57.11C1718.8,409.9,1689.19,358.54,1635.41,319.96z
			 M1704.81,517.67c-19.29,50.12-65.2,92.44-126.12,118.63c-14.27,6.15-29.38,11.4-45.15,15.67c-30.68,8.28-63.91,12.82-98.59,12.82
			c-9.83,0-19.62-0.37-29.33-1.1c-6.34-0.47-12.65-1.1-18.92-1.89c-9.05-1.12-18.01-2.57-26.87-4.33c-1.79-0.36-3.57-0.73-5.35-1.11
			c-0.14-0.03-0.28-0.04-0.42-0.04c-0.38,0-0.75,0.11-1.08,0.32l-3.27,2.1l-79.2,50.92l-18.32,11.78l18.96-92.92
			c0.18-0.87-0.24-1.76-1.03-2.17c-32.77-17.13-59.54-38.99-78.98-63.72c-16.16-20.57-27.25-43.13-32.52-66.61
			c-2.33-10.33-3.52-20.85-3.52-31.45c0-63.39,41.39-119.99,105.86-156.7c47.8-27.22,108.29-43.51,173.99-43.51
			c1.94,0,3.87,0.01,5.8,0.05c151.65,2.21,274.05,91.16,274.05,200.16C1714.8,482.95,1711.32,500.75,1704.81,517.67z"/>
		<path style="fill:#FF593A;" d="M1173.095,454.573c0-111.679,126.19-202.213,281.852-202.213S1736.8,342.894,1736.8,454.573
			s-126.189,202.213-281.852,202.213c-28.116,0-55.262-2.968-80.885-8.466l-104.78,67.363l19.912-97.561
			C1218.836,581.355,1173.095,521.801,1173.095,454.573z"/>
		<path style="fill:#FFFFFF;" d="M1272.693,418.362h364.508c3.313,0,6-2.687,6-6c0-3.314-2.687-6-6-6h-364.508c-3.313,0-6,2.686-6,6
			C1266.693,415.676,1269.38,418.362,1272.693,418.362z"/>
		<path style="fill:#FFFFFF;" d="M1272.693,460.021h364.508c3.313,0,6-2.686,6-6s-2.687-6-6-6h-364.508c-3.313,0-6,2.686-6,6
			S1269.38,460.021,1272.693,460.021z"/>
		<path style="fill:#FFFFFF;" d="M1272.693,501.681h364.508c3.313,0,6-2.686,6-6s-2.687-6-6-6h-364.508c-3.313,0-6,2.686-6,6
			S1269.38,501.681,1272.693,501.681z"/>
	</g>
	<g id="_x32__1_">
		<path style="fill:#FF593A;" d="M1029.604,1078.113c-61.372,0.312-121.585-26.095-163.015-71.131
			c-80.703-83.696-78.252-227.902,5.78-308.478c178.081-175.728,466.512,32.246,356.147,256.748
			C1192.094,1029.322,1112.433,1079.015,1029.604,1078.113z"/>
		<path style="fill:#A2C3F2;" d="M1224.368,855.741c0.77,107.811-89.79,195.695-194.765,194.763
			c-85.39,1.054-164.805-59.169-187.326-141.296C772.751,625.332,1213.351,563.463,1224.368,855.741z"/>
		<path style="fill:#5E3628;" d="M1140.934,979.238c0,0,7.345,14.359,7.911,30.506c-31.702,24.624-70.487,38.935-110.948,40.583
			c-23.586-2.894-48.227-14.896-67.909-29.644c-84.741-67.988-92.959-240.676,33.243-270.872
			c23.007-8.074,50.817-20.398,80.906,0.514c43.544,29.453,30.921,86.611,36.967,115.285c7.123,27.911,57.222,31.963,67.462,70.879
			C1197.965,972.199,1170.446,985.772,1140.934,979.238z"/>
		<rect x="979.571" y="883.609" style="fill:#F69D85;" width="63.44" height="99.447"/>
		<path style="fill:#D1836B;" d="M1024.106,942.415c0,0-21.926,8.82-44.536,4.533v-32.369L1024.106,942.415z"/>
		<path style="fill:#F69D85;" d="M1004.467,943.057L1004.467,943.057c-36.622-4.014-63.056-36.955-59.042-73.577l3.772-34.42
			c4.014-36.622,36.955-63.056,73.577-59.042h0c36.622,4.014,63.056,36.955,59.042,73.577l-3.772,34.421
			C1074.031,920.637,1041.089,947.071,1004.467,943.057z"/>
		<path style="fill:#F69D85;" d="M964.248,860.377c-1.066,9.728-9.817,16.75-19.545,15.684c-9.728-1.066-16.75-9.817-15.684-19.545
			c1.066-9.728,9.817-16.75,19.545-15.684C958.293,841.898,965.315,850.649,964.248,860.377z"/>
		<path style="fill:#F69D85;" d="M1103.47,1036.009c-51.734,21.635-114.362,18.811-163.794-7.467
			c12.532-22.249,26.921-45.883,39.879-66.323c0-0.005,0.005-0.005,0.005-0.005c0.005-0.01,0.005-0.015,0.005-0.015
			c-0.001,0.001,33.645-5.718,33.646-5.719c10.598-0.049,20.526,2.085,29.801,5.705
			C1073.404,974.043,1095.801,1003.281,1103.47,1036.009z"/>
		<path style="fill:#30313C;" d="M1024.195,854.783c-0.54,4.946,1.067,9.179,3.588,9.454c2.522,0.275,5.003-3.511,5.543-8.457
			c0.54-4.946-1.067-9.179-3.588-9.454C1027.217,846.05,1024.735,849.837,1024.195,854.783z"/>
		<path style="fill:#30313C;" d="M984.158,850.414c-0.54,4.946,1.067,9.179,3.588,9.454c2.521,0.275,5.003-3.511,5.543-8.457
			c0.54-4.946-1.067-9.179-3.588-9.454C987.18,841.681,984.698,845.467,984.158,850.414z"/>
		<path style="fill:#D1836B;" d="M1050.867,875.589c0.179,3.556-2.836,6.598-6.733,6.794c-3.897,0.196-7.202-2.529-7.38-6.085
			c-0.178-3.557,2.836-6.598,6.734-6.794C1047.384,869.308,1050.689,872.032,1050.867,875.589z"/>
		<path style="fill:#D1836B;" d="M975.966,870.328c0.178,3.556-2.836,6.598-6.734,6.794c-3.897,0.196-7.202-2.529-7.38-6.085
			c-0.179-3.556,2.836-6.598,6.734-6.793C972.483,864.048,975.787,866.772,975.966,870.328z"/>
		<path style="fill:#FFB12A;" d="M1117.192,1029.745c-58.319,30.059-132.878,27.13-188.561-7.426
			c14.948-21.337,33.541-43.084,50.935-60.12c-1.533,9.405,2.839,24.265,15.108,24.95c14.802,4.432,46.705-21.655,48.376-24.95
			C1075.588,972.463,1103.941,999.092,1117.192,1029.745z"/>
		<path style="fill:#F69D85;" d="M1100.398,871.823c-1.066,9.728-9.817,16.75-19.545,15.684c-9.728-1.066-16.75-9.817-15.684-19.545
			c1.066-9.728,9.817-16.75,19.545-15.684S1101.464,862.095,1100.398,871.823z"/>
		<path style="fill:#5E3628;" d="M1049.601,775.005c0,0-16.038-51.843-72.156-41.587c-56.118,10.256-60.729,61.991-33.184,77.777
			c19.187,10.995,71.368,2.14,92.387-9.216c0,0,1.375,27.4,33.8,34.928C1102.874,844.436,1111.224,782.785,1049.601,775.005z"/>
		<path style="fill:#DB7777;" d="M1018.647,892.653c0.405,2.865-4.124,5.874-10.114,6.719c-5.991,0.846-11.175-0.791-11.58-3.656
			s4.124-5.873,10.114-6.719C1013.058,888.151,1018.242,889.788,1018.647,892.653z"/>
		<path style="fill:#AF5945;" d="M1013.569,894.664c3.41-0.974,7.009-2.503,10.645-4.817c0.484-0.308,0.626-0.949,0.318-1.432
			c-0.308-0.484-0.952-0.626-1.432-0.318c-15.613,9.937-30.941,4.429-31.094,4.372c-0.536-0.201-1.134,0.073-1.334,0.61
			c-0.2,0.537,0.072,1.134,0.609,1.334C991.797,894.606,1001.494,898.113,1013.569,894.664z"/>
		<path style="fill:#AF5945;" d="M1081.695,879.495c0.419-0.119,0.733-0.496,0.752-0.956c0.212-5.216,3.32-5.955,6.326-6.67
			c1.794-0.427,3.492-0.83,4.34-2.221c0.527-0.864,0.62-1.946,0.283-3.309c-1.886-7.638-10.681-8.468-11.055-8.5
			c-0.571-0.048-1.072,0.374-1.121,0.945c-0.049,0.57,0.374,1.073,0.944,1.123c0.313,0.028,7.689,0.747,9.216,6.929
			c0.195,0.787,0.181,1.369-0.04,1.73c-0.397,0.653-1.686,0.959-3.047,1.282c-3.048,0.724-7.645,1.817-7.921,8.605
			c-0.023,0.573,0.422,1.056,0.995,1.079C1081.481,879.539,1081.592,879.525,1081.695,879.495z"/>
		<path style="fill:#AF5945;" d="M945.598,868.953c0.428-0.122,0.744-0.512,0.752-0.98c0.114-6.793-4.416-8.149-7.413-9.046
			c-1.342-0.402-2.61-0.781-2.969-1.455c-0.2-0.374-0.18-0.956,0.06-1.73c1.887-6.11,9.521-6.387,9.597-6.388
			c0.575-0.02,1.026-0.492,1.01-1.065c-0.016-0.573-0.493-1.025-1.065-1.01c-0.375,0.009-9.202,0.333-11.525,7.851
			c-0.414,1.341-0.384,2.427,0.092,3.32c0.767,1.437,2.438,1.937,4.206,2.466c2.96,0.886,6.02,1.802,5.932,7.022
			c-0.009,0.573,0.447,1.046,1.021,1.055C945.4,868.995,945.502,868.981,945.598,868.953z"/>
		<path style="fill:#FFB12A;" d="M1096.56,888.46c-0.52-1.85-1.58-3.4-2.95-4.55c-2.27-1.89-5.41-2.66-8.45-1.79
			c-2.74,0.78-4.83,2.72-5.9,5.14c-0.85,1.9-1.06,4.1-0.44,6.27c1.09,3.83,4.46,6.4,8.22,6.66c1.05,0.08,2.12-0.02,3.19-0.32
			c3.55-1.02,6.03-4,6.58-7.44C1097.01,891.15,1096.95,889.8,1096.56,888.46z M1090.18,897.7c-0.17,0.06-0.34,0.12-0.52,0.17
			c-3.8,1.08-7.77-1.12-8.85-4.92c-0.54-1.88-0.27-3.8,0.61-5.39c0.89-1.62,2.4-2.9,4.31-3.45c2.15-0.62,4.37-0.17,6.07,1.03
			c1.3,0.91,2.3,2.25,2.77,3.88c0.59,2.09,0.19,4.24-0.92,5.92C1092.84,896.18,1091.64,897.16,1090.18,897.7z"/>
		<path style="fill:#FFB12A;" d="M944.03,875.98v-0.01c-0.05-0.57-0.15-1.15-0.32-1.72c-1.4-4.89-6.52-7.73-11.41-6.34
			c-0.18,0.05-0.35,0.11-0.52,0.18h-0.01c-4.57,1.6-7.16,6.52-5.81,11.24c1.4,4.89,6.52,7.73,11.41,6.33
			C941.69,884.43,944.42,880.3,944.03,875.98z M936.8,883.67c-3.79,1.08-7.76-1.12-8.84-4.92c-1.09-3.79,1.12-7.76,4.91-8.84
			c0.07-0.02,0.14-0.04,0.22-0.05c3.72-0.95,7.56,1.24,8.63,4.96c0.06,0.23,0.11,0.46,0.15,0.69
			C942.53,879.09,940.36,882.65,936.8,883.67z"/>
		<path style="fill:#AF5945;" d="M1040.725,846.681c0.282-0.081,0.547-0.233,0.766-0.458c0.672-0.688,0.659-1.791-0.029-2.463
			c-0.339-0.331-8.425-8.084-19.695-6.673c-0.954,0.117-1.631,0.99-1.512,1.944c0.12,0.954,0.99,1.632,1.944,1.512
			c9.623-1.204,16.758,5.64,16.829,5.709C1039.492,846.706,1040.144,846.847,1040.725,846.681z"/>
		<path style="fill:#AF5945;" d="M1000.124,838.389c0.47-0.134,0.881-0.464,1.102-0.941c0.403-0.87,0.03-1.901-0.839-2.308
			c-0.359-0.169-8.922-4.064-18.37,1.627c-0.824,0.496-1.089,1.567-0.593,2.391c0.496,0.823,1.564,1.09,2.391,0.593
			c7.805-4.703,14.807-1.588,15.101-1.453C999.31,838.478,999.737,838.499,1000.124,838.389z"/>
		<path style="fill:#AF5945;" d="M1008.083,880.252c0.334-0.095,0.612-0.356,0.714-0.714c0.157-0.551-0.162-1.125-0.714-1.282
			c-2.42-0.69-7.322-2.786-7.028-4.857c0.411-2.887,5.444-15.695,7.349-20.386c0.216-0.531-0.04-1.137-0.571-1.352
			c-0.531-0.216-1.137,0.04-1.352,0.571c-0.284,0.699-6.951,17.146-7.481,20.875c-0.627,4.414,7.578,6.879,8.515,7.146
			C1007.708,880.307,1007.904,880.303,1008.083,880.252z"/>
		
			<ellipse transform="matrix(0.2298 -0.9732 0.9732 0.2298 93.0916 1578.5071)" style="fill:#5E3628;" cx="1043.81" cy="730.44" rx="44.955" ry="44.955"/>
		<path style="fill:#F69D85;" d="M1122.559,1026.931c-1.774,0.969-3.563,1.906-5.367,2.814c-4.475,2.258-9.052,4.353-13.721,6.264
			c-16.785,6.886-34.742,11.494-53.488,13.441l-7.049-22.504c-6.412-20.465,4.98-42.255,25.444-48.667
			c0.301-0.092,0.596-0.183,0.897-0.27c1.32-0.377,2.64-0.688,3.96-0.922c18.951-3.364,37.902,7.788,43.809,26.637
			c0.285,0.902,0.551,1.901,0.765,2.803L1122.559,1026.931z"/>
		<path style="fill:#FFB12A;" d="M1138.334,1017.354c-29.931,20.194-65.066,31.722-101.539,33.019
			c-3.02-30.904-5.88-61.634,6.217-88.189C1075.133,961.737,1120.047,971.516,1138.334,1017.354z"/>
		<path style="fill:#FFB12A;" d="M982.762,985.104c0.168,18.676-3.795,38.923-8.522,57.418
			c-33.327-9.819-63.84-28.864-87.394-54.299c22.92-26.744,63.372-31.615,92.721-26.026
			C981.824,968.893,982.693,977.394,982.762,985.104z"/>
	</g>
	<g id="_x31_">
		<path style="fill:#3E8EDD;" d="M1029.602,1593.889c-61.251,0.314-121.573-26.111-162.995-71.109
			c-80.715-83.685-78.277-227.924,5.761-308.5c133.492-140.222,384.417-36.391,379.607,157.25
			C1254.557,1490.845,1148.855,1596.412,1029.602,1593.889z"/>
		<path style="fill:#A2C3F2;" d="M1224.369,1371.524c0.768,107.802-89.797,195.701-194.768,194.757
			c-85.38,1.057-164.808-59.168-187.321-141.29C772.742,1141.104,1213.356,1079.234,1224.369,1371.524z"/>
		<rect x="996.785" y="1434.665" style="fill:#FFFFFF;" width="65.644" height="95.34"/>
		<path style="fill:#FFFFFF;" d="M949.783,1410.903h-32.457c-17.925,0-32.457-14.531-32.457-32.457l0,0
			c0-17.926,14.531-32.457,32.457-32.457h32.457V1410.903z"/>
		<path style="fill:#FFFFFF;" d="M1109.431,1410.903h32.457c17.926,0,32.457-14.531,32.457-32.457l0,0
			c0-17.926-14.531-32.457-32.457-32.457h-32.457V1410.903z"/>
		<circle style="fill:#FFFFFF;" cx="1029.607" cy="1378.446" r="113.924"/>
		<circle style="fill:#495687;" cx="1029.607" cy="1378.446" r="89.216"/>
		<rect x="1023.674" y="1216.514" style="fill:#FFFFFF;" width="11.866" height="54.538"/>
		
			<ellipse transform="matrix(0.2298 -0.9732 0.9732 0.2298 -390.919 1939.079)" style="fill:#495687;" cx="1029.607" cy="1216.513" rx="15.149" ry="15.149"/>
		<path style="fill:#FFB12A;" d="M996.785,1363.188c0,7.723-2.97,13.983-6.634,13.983c-3.664,0-6.634-6.26-6.634-13.983
			c0-7.722,2.97-13.983,6.634-13.983C993.815,1349.205,996.785,1355.465,996.785,1363.188z"/>
		<path style="fill:#FFB12A;" d="M1075.697,1363.188c0,7.723-2.97,13.983-6.634,13.983c-3.664,0-6.634-6.26-6.634-13.983
			c0-7.722,2.97-13.983,6.634-13.983C1072.727,1349.205,1075.697,1355.465,1075.697,1363.188z"/>
		<path style="fill:#FFB12A;" d="M1029.607,1415.599c-17.71,0-24.714-11.809-25.004-12.311c-0.436-0.757-0.175-1.725,0.582-2.16
			c0.757-0.436,1.724-0.176,2.161,0.581c0.254,0.434,6.449,10.726,22.262,10.726c15.901,0,22.201-10.619,22.262-10.726
			c0.437-0.757,1.405-1.017,2.161-0.581c0.757,0.436,1.018,1.403,0.582,2.16C1054.322,1403.791,1047.317,1415.599,1029.607,1415.599
			z"/>
		<path style="fill:#FFFFFF;" d="M1133.225,1536.464c-61.372,39.586-145.934,39.587-207.227-0.009
			c14.66-13.537,34.243-21.801,55.769-21.801C1020.428,1517.645,1104.469,1502.819,1133.225,1536.464z"/>
		<path style="fill:#B0C3EA;" d="M1028.599,1493.406c-19.81,0-32.274-4.271-32.459-4.337c-0.479-0.169-0.731-0.694-0.563-1.174
			c0.169-0.479,0.692-0.73,1.174-0.563c0.273,0.096,27.794,9.5,66.202-0.025c0.49-0.123,0.992,0.179,1.115,0.672
			c0.122,0.493-0.179,0.992-0.672,1.115C1050.362,1492.327,1038.552,1493.406,1028.599,1493.406z"/>
		<path style="fill:#B0C3EA;" d="M920.63,1412.073c-0.406,0-0.778-0.271-0.888-0.683c-10.294-38.369-0.702-65.755-0.604-66.027
			c0.173-0.478,0.7-0.725,1.177-0.553c0.478,0.172,0.726,0.699,0.554,1.177c-0.096,0.268-9.486,27.149,0.649,64.927
			c0.132,0.49-0.159,0.995-0.65,1.127C920.789,1412.063,920.708,1412.073,920.63,1412.073z"/>
		<path style="fill:#B0C3EA;" d="M1139.495,1412.073c-0.079,0-0.159-0.011-0.239-0.032c-0.491-0.132-0.782-0.637-0.65-1.127
			c10.135-37.777,0.746-64.659,0.649-64.927c-0.172-0.478,0.076-1.005,0.555-1.177c0.476-0.174,1.004,0.074,1.178,0.553
			c0.098,0.272,9.689,27.658-0.604,66.027C1140.272,1411.802,1139.901,1412.073,1139.495,1412.073z"/>
		<path style="fill:#B0C3EA;" d="M1062.43,1515.574h-65.644c-0.508,0-0.921-0.412-0.921-0.92s0.412-0.92,0.921-0.92h65.644
			c0.508,0,0.92,0.412,0.92,0.92S1062.938,1515.574,1062.43,1515.574z"/>
	</g>
</g>
</svg>
