<?xml version="1.0" encoding="utf-8"?>
<!-- Generator: Adobe Illustrator 27.5.0, SVG Export Plug-In . SVG Version: 6.00 Build 0)  -->
<svg version="1.1" xmlns="http://www.w3.org/2000/svg" xmlns:xlink="http://www.w3.org/1999/xlink" x="0px" y="0px"
	 viewBox="0 0 3710 3710" style="enable-background:new 0 0 3710 3710;" xml:space="preserve">
<g id="Background">
	<g>
		<g>
			<rect style="fill:#FFFFFF;" width="3710" height="3710"/>
		</g>
	</g>
</g>
<g id="Illustration">
	<g>
		<linearGradient id="SVGID_1_" gradientUnits="userSpaceOnUse" x1="3610.5957" y1="4076.7302" x2="1133.2343" y2="1000.0027">
			<stop  offset="0" style="stop-color:#B37CFF"/>
			<stop  offset="1" style="stop-color:#F895E7"/>
		</linearGradient>
		<path style="opacity:0.3;fill:url(#SVGID_1_);" d="M2929.058,2863.38c-56.904,59.906-110.746,98.539-153.286,129.061
			c-500.044,358.787-1091.729,254.203-1217.479,228.662c-185.693-37.715-544.633-110.618-804.14-415.793
			c-392.613-461.705-331.477-1189.108-26.94-1669.277c55.705-87.831,349.953-575.314,948.01-653.491
			c361.938-47.312,783.842,48.111,1089.373,304.085C3405.932,1323.94,3360.276,2409.407,2929.058,2863.38z"/>
		<g>
			<g>
				<g>
					<g>
						<path style="fill:#FFFFFF;" d="M2373.401,927.288c9.469-8.68,43.982-72.982,106.923-4.842
							c6.616,3.079,22.905-7.123,20.478-13.646c-74.518-98.821-157.273,0.816-148.259,10.924
							C2361.557,929.833,2362.389,937.385,2373.401,927.288z"/>
					</g>
					<g>
						<path style="fill:#FFFFFF;" d="M2541.633,877.146c12.971-2.119,24.828-11.569,20.648-22.808
							c-4.118-11.074-135.124-150.836-266.337,19.301c-1.609,2.088-2.32,4.732-1.972,7.344c0.347,2.614,1.723,4.981,3.823,6.575
							c6.548,4.971,12.083,8.259,19.019,7.085C2437.16,745.099,2528.662,879.264,2541.633,877.146z"/>
					</g>
					<g>
						<path style="fill:#FFFFFF;" d="M2604.455,830.79c9.346,1.437,27.968-6.38,22.389-21.378
							c-229.805-228.446-413.606,30.159-405.996,39.911c7.61,9.753,22.137,9.475,27.823,5.812
							C2412.981,623.551,2595.108,829.352,2604.455,830.79z"/>
					</g>
				</g>
				<path style="fill:#FFFFFF;" d="M2456.6,960.015c0.723,16.026-11.682,29.604-27.708,30.327
					c-16.026,0.723-29.603-11.682-30.326-27.708c-0.723-16.026,11.682-29.603,27.708-30.326
					C2442.299,931.584,2455.876,943.989,2456.6,960.015z"/>
			</g>
		</g>
		<g>
			<g>
				
					<linearGradient id="SVGID_00000060729565429461624610000012543737413209077125_" gradientUnits="userSpaceOnUse" x1="865.1067" y1="1641.119" x2="1651.9061" y2="4169.0747">
					<stop  offset="0" style="stop-color:#CB236D"/>
					<stop  offset="1" style="stop-color:#4C246D"/>
				</linearGradient>
				<path style="fill:url(#SVGID_00000060729565429461624610000012543737413209077125_);" d="M541.326,606.84
					c3.807-20.107,32.099-21.749,38.122-2.191c58.218,189.079,226.403,680.094,472.647,936.704
					c400.942,417.819,678.075,1105.692,437.194,1471.644C1489.289,3012.997,126.527,2797.546,541.326,606.84z"/>
				<path style="opacity:0.43;fill:#FFFFFF;" d="M593.467,877.502c0.706,4.448,1.905,10.151,2.941,15.378l3.417,15.977l7.196,31.916
					l14.999,63.725c10.329,42.41,21.184,84.694,32.426,126.869c22.314,84.392,46.029,168.406,71.474,251.883
					c51.283,166.806,106.723,332.371,171.082,494.48c32.532,80.883,65.31,161.688,101.482,240.995
					c36.161,79.288,74.177,157.74,115.182,234.608c81.443,153.984,174.478,302.047,283.397,438.405
					c1.492,1.832,1.215,4.527-0.616,6.019c-1.778,1.448-4.403,1.192-5.917-0.497c-57.787-65.903-110.55-136.114-160.27-208.359
					c-49.129-72.68-93.975-148.125-136.801-224.647c-83.87-154.052-156.786-313.868-220.523-477.082
					c-32.016-81.567-61.331-164.137-89.459-247.068c-28.075-82.955-54.357-166.511-78.169-250.768
					c-23.952-84.206-46.686-168.755-67.025-253.891c-10.073-42.591-19.753-85.272-28.903-128.068
					c-4.496-21.416-9.003-42.829-13.159-64.321l-6.005-32.293l-2.827-16.199c-0.84-5.536-1.84-10.544-2.473-16.945
					c-0.23-2.328,1.47-4.403,3.798-4.632c2.241-0.221,4.247,1.345,4.599,3.539L593.467,877.502z"/>
			</g>
			<g>
				
					<linearGradient id="SVGID_00000150811775093393194040000007548427050185541780_" gradientUnits="userSpaceOnUse" x1="1585.484" y1="1963.4482" x2="908.1612" y2="-288.1885" gradientTransform="matrix(0.9972 0.0742 -0.0742 0.9972 33.8439 115.1553)">
					<stop  offset="0" style="stop-color:#A737D5"/>
					<stop  offset="1" style="stop-color:#EF497A"/>
				</linearGradient>
				<path style="fill:url(#SVGID_00000150811775093393194040000007548427050185541780_);" d="M930.238,459.958
					c226.057,172.295,1500.631,1228.674,724.18,2602.775c0,0-1018.126-479.449-762.645-2586.617
					C894.007,457.682,915.47,448.702,930.238,459.958z"/>
				<path style="opacity:0.43;fill:#FFFFFF;" d="M1008.428,734.661c25.952,40.27,50.674,81.183,75.041,122.351
					c24.3,41.197,48.046,82.716,71.254,124.536c46.445,83.622,90.871,168.369,133.165,254.175
					c84.511,171.625,160.979,347.375,225.643,527.57c64.425,180.172,117.445,364.952,149.905,553.926
					c8.263,47.199,14.726,94.717,19.967,142.366c1.189,11.927,2.674,23.824,3.62,35.775l2.989,35.841
					c1.495,23.932,3.186,47.859,3.816,71.844c3.658,95.866-0.966,192.193-15.121,287.287c-0.594,3.992-4.311,6.746-8.303,6.152
					c-3.992-0.594-6.745-4.312-6.151-8.303l0.004-0.026l0.01-0.064c14.339-93.982,19.293-189.419,16.008-284.591
					c-0.536-23.806-2.131-47.575-3.527-71.349l-2.839-35.618c-0.895-11.878-2.33-23.71-3.468-35.567
					c-5.035-47.38-11.286-94.661-19.338-141.659c-31.606-188.16-83.762-372.559-147.37-552.521
					c-63.844-179.99-139.531-355.72-223.292-527.406c-41.919-85.838-85.976-170.638-132.057-254.325
					c-23.025-41.852-46.59-83.407-70.707-124.638c-24.171-41.182-48.75-82.194-74.437-122.375l-0.023-0.036
					c-0.921-1.44-0.499-3.354,0.941-4.275C1005.599,732.809,1007.507,733.221,1008.428,734.661z"/>
			</g>
		</g>
		<g>
			<g>
				
					<linearGradient id="SVGID_00000145051513612172240590000012013668297018087299_" gradientUnits="userSpaceOnUse" x1="317.5969" y1="3207.8374" x2="1785.7582" y2="1241.3945">
					<stop  offset="0" style="stop-color:#FDF53F"/>
					<stop  offset="1" style="stop-color:#D93C65"/>
				</linearGradient>
				<path style="fill:url(#SVGID_00000145051513612172240590000012013668297018087299_);" d="M543.353,3124.409h666.983V1811.574
					H529.607v1299.089C529.607,3118.255,535.761,3124.409,543.353,3124.409z"/>
				
					<linearGradient id="SVGID_00000180345052072744883360000006504221967979575996_" gradientUnits="userSpaceOnUse" x1="-649.5832" y1="2489.7078" x2="1927.9625" y2="1131.1475">
					<stop  offset="0" style="stop-color:#53D8FF"/>
					<stop  offset="1" style="stop-color:#3840F7"/>
				</linearGradient>
				<path style="fill:url(#SVGID_00000180345052072744883360000006504221967979575996_);" d="M494.693,1925.029h804.318
					l156.484-591.586H666.905l-203.897,541.965C452.272,1898.557,469.176,1925.029,494.693,1925.029z"/>
				
					<linearGradient id="SVGID_00000181074407169236982260000002673704846224679865_" gradientUnits="userSpaceOnUse" x1="1279.3933" y1="-455.4627" x2="813.5726" y2="4458.9478">
					<stop  offset="0" style="stop-color:#53D8FF"/>
					<stop  offset="1" style="stop-color:#3840F7"/>
				</linearGradient>
				<path style="fill:url(#SVGID_00000181074407169236982260000002673704846224679865_);" d="M666.906,1341.546l886.276,6.048
					l3.658-70.879l-831.93-0.001c-32.035,0-58.005,17.599-58.005,39.309V1341.546z"/>
				<g style="opacity:0.89;">
					<path style="fill:#FFFFFF;" d="M674.574,2767.837h386.742c0.62,0,1.123-0.503,1.123-1.123V2169.27
						c0-0.62-0.503-1.123-1.123-1.123H674.574c-0.62,0-1.123,0.503-1.123,1.123v597.444
						C673.451,2767.334,673.954,2767.837,674.574,2767.837z"/>
					<g>
						
							<linearGradient id="SVGID_00000062889441587905712480000000309147291129260169_" gradientUnits="userSpaceOnUse" x1="1000.0372" y1="1948.7815" x2="917.5375" y2="2981.5518">
							<stop  offset="0" style="stop-color:#FDF53F"/>
							<stop  offset="1" style="stop-color:#D93C65"/>
						</linearGradient>
						<path style="fill:url(#SVGID_00000062889441587905712480000000309147291129260169_);" d="M883.672,2735.421h149.779
							c0.345,0,0.624-0.279,0.624-0.624v-533.611c0-0.344-0.279-0.624-0.624-0.624H883.672c-0.345,0-0.624,0.28-0.624,0.624v533.611
							C883.048,2735.142,883.327,2735.421,883.672,2735.421z"/>
						
							<linearGradient id="SVGID_00000017517498981461749970000016974601698253106827_" gradientUnits="userSpaceOnUse" x1="819.9533" y1="1934.3933" x2="737.4536" y2="2967.1636">
							<stop  offset="0" style="stop-color:#FDF53F"/>
							<stop  offset="1" style="stop-color:#D93C65"/>
						</linearGradient>
						<path style="fill:url(#SVGID_00000017517498981461749970000016974601698253106827_);" d="M702.439,2735.421h149.779
							c0.345,0,0.624-0.279,0.624-0.624v-533.611c0-0.344-0.279-0.624-0.624-0.624H702.439c-0.345,0-0.624,0.28-0.624,0.624v533.611
							C701.815,2735.142,702.094,2735.421,702.439,2735.421z"/>
					</g>
				</g>
			</g>
			
				<linearGradient id="SVGID_00000138549904703274344270000010043346323627392654_" gradientUnits="userSpaceOnUse" x1="1552.7828" y1="1966.718" x2="3430.0713" y2="4193.2681">
				<stop  offset="0" style="stop-color:#FDF53F"/>
				<stop  offset="1" style="stop-color:#D93C65"/>
			</linearGradient>
			<path style="fill:url(#SVGID_00000138549904703274344270000010043346323627392654_);" d="M1930.363,990.461
				c0,0-922.878,696.719-945.742,696.719v1431.453c0,35.192,28.529,63.72,63.72,63.72h1782.507
				c24.994,0,45.256-20.262,45.256-45.256V1687.179L1930.363,990.461z"/>
			<g>
				
					<linearGradient id="SVGID_00000111901284778408048410000017350677385037271940_" gradientUnits="userSpaceOnUse" x1="1863.2756" y1="2710.3594" x2="1898.598" y2="3231.3672">
					<stop  offset="0" style="stop-color:#FDF53F"/>
					<stop  offset="1" style="stop-color:#D93C65"/>
				</linearGradient>
				<path style="fill:url(#SVGID_00000111901284778408048410000017350677385037271940_);" d="M2181.304,3124.409h-586.451v-96.314
					c0-1.751,1.419-3.17,3.171-3.17h580.11c1.751,0,3.17,1.419,3.17,3.17V3124.409z"/>
				
					<linearGradient id="SVGID_00000027576972207887639280000005756539763267027898_" gradientUnits="userSpaceOnUse" x1="1867.5151" y1="2836.1895" x2="1902.8375" y2="3357.1973">
					<stop  offset="0" style="stop-color:#FDF53F"/>
					<stop  offset="1" style="stop-color:#D93C65"/>
				</linearGradient>
				<path style="fill:url(#SVGID_00000027576972207887639280000005756539763267027898_);" d="M2181.304,3187.706h-586.451v-96.314
					c0-1.751,1.419-3.17,3.171-3.17h580.11c1.751,0,3.17,1.419,3.17,3.17V3187.706z"/>
				
					<linearGradient id="SVGID_00000040538317126325423990000016309139302912632740_" gradientUnits="userSpaceOnUse" x1="1897.6055" y1="464.1128" x2="1885.3212" y2="3264.8765">
					<stop  offset="0" style="stop-color:#FDF53F"/>
					<stop  offset="1" style="stop-color:#D93C65"/>
				</linearGradient>
				<path style="fill:url(#SVGID_00000040538317126325423990000016309139302912632740_);" d="M2088.215,3024.924h-400.274v-777.307
					c0-1.966,1.594-3.56,3.56-3.56h393.154c1.966,0,3.56,1.594,3.56,3.56V3024.924z"/>
				<path style="opacity:0.89;fill:#FFFFFF;" d="M2059.952,2191.498h-343.748c-15.609,0-28.263-12.653-28.263-28.263v-24.687
					c0-14.849,11.491-27.166,26.304-28.195l343.748-23.878c16.341-1.135,30.222,11.815,30.222,28.195v48.565
					C2088.215,2178.845,2075.561,2191.498,2059.952,2191.498z"/>
				<g>
					
						<linearGradient id="SVGID_00000043445230343947668580000017974712233213070014_" gradientUnits="userSpaceOnUse" x1="2700.6558" y1="1081.9664" x2="2062.0398" y2="2731.7212">
						<stop  offset="0" style="stop-color:#FDF53F"/>
						<stop  offset="1" style="stop-color:#D93C65"/>
					</linearGradient>
					<path style="opacity:0.9;fill:url(#SVGID_00000043445230343947668580000017974712233213070014_);" d="M2406.083,1844.612
						h-3.803c-98.859,0-185.407,69.99-185.407,168.849v178.037h189.21V1844.612z"/>
					
						<linearGradient id="SVGID_00000143618443772638721020000014949685538292128681_" gradientUnits="userSpaceOnUse" x1="2849.1511" y1="1139.4507" x2="2210.5337" y2="2789.2092">
						<stop  offset="0" style="stop-color:#FDF53F"/>
						<stop  offset="1" style="stop-color:#D93C65"/>
					</linearGradient>
					<path style="opacity:0.9;fill:url(#SVGID_00000143618443772638721020000014949685538292128681_);" d="M2216.873,2244.057
						v523.779c0,17.638,20.704,44.98,38.34,44.98h150.87v-568.76H2216.873z"/>
					
						<linearGradient id="SVGID_00000064353944922872015520000002700451175731699885_" gradientUnits="userSpaceOnUse" x1="2878.4509" y1="1150.7919" x2="2239.8345" y2="2800.5476">
						<stop  offset="0" style="stop-color:#FDF53F"/>
						<stop  offset="1" style="stop-color:#D93C65"/>
					</linearGradient>
					<path style="opacity:0.9;fill:url(#SVGID_00000064353944922872015520000002700451175731699885_);" d="M2457.746,1844.612
						h-9.616v346.886h189.211v-178.037C2637.341,1914.603,2556.605,1844.612,2457.746,1844.612z"/>
					
						<linearGradient id="SVGID_00000091736859509041896960000003034198812695166598_" gradientUnits="userSpaceOnUse" x1="3044.0405" y1="1214.8884" x2="2405.4233" y2="2864.6462">
						<stop  offset="0" style="stop-color:#FDF53F"/>
						<stop  offset="1" style="stop-color:#D93C65"/>
					</linearGradient>
					<path style="opacity:0.9;fill:url(#SVGID_00000091736859509041896960000003034198812695166598_);" d="M2448.13,2812.817
						h156.684c17.636,0,32.528-27.343,32.528-44.98v-523.779H2448.13V2812.817z"/>
				</g>
				<g>
					
						<linearGradient id="SVGID_00000072967409611200245670000012303332340970163124_" gradientUnits="userSpaceOnUse" x1="1289.1021" y1="946.7286" x2="1255.061" y2="2934.7209">
						<stop  offset="0" style="stop-color:#FDF53F"/>
						<stop  offset="1" style="stop-color:#D93C65"/>
					</linearGradient>
					<path style="fill:url(#SVGID_00000072967409611200245670000012303332340970163124_);" d="M1363.93,1844.612h-3.803
						c-98.86,0-185.408,69.99-185.408,168.849v178.037h189.211V1844.612z"/>
					
						<linearGradient id="SVGID_00000011753261438739431120000011741899586317226139_" gradientUnits="userSpaceOnUse" x1="1296.4061" y1="946.8545" x2="1262.3651" y2="2934.8464">
						<stop  offset="0" style="stop-color:#FDF53F"/>
						<stop  offset="1" style="stop-color:#D93C65"/>
					</linearGradient>
					<path style="fill:url(#SVGID_00000011753261438739431120000011741899586317226139_);" d="M1174.719,2244.057v523.779
						c0,17.638,20.704,44.98,38.34,44.98h150.871v-568.76H1174.719z"/>
					
						<linearGradient id="SVGID_00000058574640104189346990000011487606661635791802_" gradientUnits="userSpaceOnUse" x1="1518.8589" y1="950.6616" x2="1484.8177" y2="2938.6567">
						<stop  offset="0" style="stop-color:#FDF53F"/>
						<stop  offset="1" style="stop-color:#D93C65"/>
					</linearGradient>
					<path style="fill:url(#SVGID_00000058574640104189346990000011487606661635791802_);" d="M1415.592,1844.612h-9.615v346.886
						h189.21v-178.037C1595.187,1914.603,1514.452,1844.612,1415.592,1844.612z"/>
					
						<linearGradient id="SVGID_00000151535278539922660700000009229259502773386113_" gradientUnits="userSpaceOnUse" x1="1527.2131" y1="950.803" x2="1493.1721" y2="2938.7947">
						<stop  offset="0" style="stop-color:#FDF53F"/>
						<stop  offset="1" style="stop-color:#D93C65"/>
					</linearGradient>
					<path style="fill:url(#SVGID_00000151535278539922660700000009229259502773386113_);" d="M1405.976,2812.817h156.683
						c17.636,0,32.527-27.343,32.527-44.98v-523.779h-189.21V2812.817z"/>
				</g>
				<path style="fill:#FFFFFF;" d="M2653.71,2845.531h-455.471c-26.117,0-47.364-21.248-47.364-47.366v-788.604
					c0-124.707,101.458-226.163,226.165-226.163h97.87c124.707,0,226.164,101.456,226.164,226.163v788.604
					C2701.074,2824.283,2679.827,2845.531,2653.71,2845.531z M2377.041,1787.785c-122.289,0-221.779,99.488-221.779,221.777v788.604
					c0,23.699,19.28,42.979,42.977,42.979h455.471c23.697,0,42.977-19.28,42.977-42.979v-788.604
					c0-122.289-99.487-221.777-221.777-221.777H2377.041z"/>
				<path style="fill:#FFFFFF;" d="M1611.761,2845.531H1156.29c-26.117,0-47.364-21.248-47.364-47.366v-788.604
					c0-124.707,101.456-226.163,226.163-226.163h97.87c124.708,0,226.165,101.456,226.165,226.163v788.604
					C1659.125,2824.283,1637.879,2845.531,1611.761,2845.531z M1335.09,1787.785c-122.289,0-221.777,99.488-221.777,221.777v788.604
					c0,23.699,19.281,42.979,42.977,42.979h455.471c23.697,0,42.977-19.28,42.977-42.979v-788.604
					c0-122.289-99.489-221.777-221.778-221.777H1335.09z"/>
				
					<linearGradient id="SVGID_00000109741079260528208090000006469423961742953124_" gradientUnits="userSpaceOnUse" x1="2541.2314" y1="1159.7985" x2="1594.7972" y2="2809.2402">
					<stop  offset="0" style="stop-color:#FDF53F"/>
					<stop  offset="1" style="stop-color:#D93C65"/>
				</linearGradient>
				<path style="fill:url(#SVGID_00000109741079260528208090000006469423961742953124_);" d="M1702.093,3024.924h-9.672
					c-3.768,0-6.823-3.055-6.823-6.823v-768.239c0-3.206,2.599-5.805,5.806-5.805h10.689V3024.924z"/>
			</g>
			<g>
				
					<linearGradient id="SVGID_00000039824058284422196940000017369255390273073041_" gradientUnits="userSpaceOnUse" x1="1407.6642" y1="-1485.1553" x2="1529.5161" y2="1500.2233">
					<stop  offset="0" style="stop-color:#53D8FF"/>
					<stop  offset="0.6092" style="stop-color:#437BFA"/>
					<stop  offset="1" style="stop-color:#3840F7"/>
				</linearGradient>
				
					<rect x="1434.474" y="960.887" style="fill:url(#SVGID_00000039824058284422196940000017369255390273073041_);" width="156.454" height="254.742"/>
				
					<linearGradient id="SVGID_00000046308221484989102340000016377035259377789583_" gradientUnits="userSpaceOnUse" x1="1501.3438" y1="607.2957" x2="1542.55" y2="1616.8546">
					<stop  offset="0" style="stop-color:#53D8FF"/>
					<stop  offset="1" style="stop-color:#3840F7"/>
				</linearGradient>
				<path style="fill:url(#SVGID_00000046308221484989102340000016377035259377789583_);" d="M1642.491,1002.164h-252.882v-72.131
					c0-3.367,2.729-6.096,6.096-6.096h237.509c5.124,0,9.278,4.154,9.278,9.278V1002.164z"/>
				
					<linearGradient id="SVGID_00000074408547631119326760000014893042381782720948_" gradientUnits="userSpaceOnUse" x1="1938.2568" y1="1683.9896" x2="1987.4635" y2="4060.0237">
					<stop  offset="0" style="stop-color:#53D8FF"/>
					<stop  offset="1" style="stop-color:#3840F7"/>
				</linearGradient>
				<path style="fill:url(#SVGID_00000074408547631119326760000014893042381782720948_);" d="M926.637,1760.225l1003.727-769.764
					l952.766,739.03c34.63,26.862,85.426,8.049,94.205-34.89l13.364-65.365L1930.363,821.503L904.005,1605.444
					c-18.377,14.036-25.045,38.66-16.262,60.052L926.637,1760.225z"/>
			</g>
		</g>
		<g>
			<g>
				<g>
					
						<linearGradient id="SVGID_00000178183336131550730800000015877275012193713048_" gradientUnits="userSpaceOnUse" x1="1811.5256" y1="2135.7012" x2="3193.7046" y2="2135.7012">
						<stop  offset="0" style="stop-color:#2B3582"/>
						<stop  offset="1" style="stop-color:#150E42"/>
					</linearGradient>
					<path style="fill:url(#SVGID_00000178183336131550730800000015877275012193713048_);" d="M1836.853,1176.673
						c-8.152,340.289-34.591,1514.073-21.97,1930.026c1.337,44.067,35.475,79.436,78.058,80.878
						c210.615,7.132,816.495,25.209,1160.99,10.253c71.753-3.115,128.813-63.258,130.302-137.557
						c7.159-357.177,22.952-1361.779-14.588-1821.988c-4.498-55.14-46.321-99.05-99.53-104.558
						c-229.369-23.744-838.57-81.784-1136.192-61.798C1880.247,1075.533,1838.187,1121.029,1836.853,1176.673z"/>
					
						<linearGradient id="SVGID_00000078002796514667234890000006049961678817719990_" gradientUnits="userSpaceOnUse" x1="2888.3457" y1="1110.1093" x2="2110.2134" y2="3080.7009">
						<stop  offset="0" style="stop-color:#53D8FF"/>
						<stop  offset="1" style="stop-color:#3840F7"/>
					</linearGradient>
					<path style="fill:url(#SVGID_00000078002796514667234890000006049961678817719990_);" d="M1923.177,1310.947
						c-9.067,285.425-37.274,1234.95-23.133,1585.856c2.067,51.29,40.011,92.452,87.705,95.045
						c196.373,10.676,700.017,33.614,987.707,6.379c51.803-4.904,92.124-50.319,94.478-106.168
						c12.273-291.219,47.132-1175.434,33.492-1522.41c-2.176-55.352-42.431-100.23-93.797-104.746
						c-212.501-18.686-758.246-62.807-1002.77-46.374C1960.957,1221.614,1924.746,1261.533,1923.177,1310.947z"/>
					<path style="opacity:0.5;fill:#FFFFFF;" d="M2358.695,1144.861L2358.695,1144.861c0,10.441,7.864,19.053,17.94,19.599
						c49.746,2.696,189.881,10.324,252.509,14.084c12.348,0.741,22.04-10.745,19.698-23.313l-0.4-2.145
						c-1.598-8.575-8.471-15.031-16.876-15.827c-42.334-4.014-170.073-15.145-254.708-12.018
						C2366.692,1125.617,2358.695,1134.334,2358.695,1144.861z"/>
				</g>
			</g>
			<g>
				
					<linearGradient id="SVGID_00000052804230814207987220000012624635382694633903_" gradientUnits="userSpaceOnUse" x1="1985.5874" y1="1499.4344" x2="2307.2727" y2="1499.4344">
					<stop  offset="0" style="stop-color:#A737D5"/>
					<stop  offset="1" style="stop-color:#EF497A"/>
				</linearGradient>
				<path style="fill:url(#SVGID_00000052804230814207987220000012624635382694633903_);" d="M2300.083,1660.277h-307.305
					c-3.971,0-7.19-3.219-7.19-7.19v-307.305c0-3.971,3.219-7.19,7.19-7.19h307.305c3.971,0,7.19,3.219,7.19,7.19v307.305
					C2307.273,1657.058,2304.054,1660.277,2300.083,1660.277z"/>
				<g style="opacity:0.75;">
					<path style="fill:#FFFFFF;" d="M2216.824,1455.771h-9.238c-4.587,0-8.306-3.718-8.306-8.306v-31.575
						c0-11.302-9.163-20.465-20.465-20.465h-57.24c-11.302,0-20.465,9.162-20.465,20.465v31.575c0,4.587-3.719,8.306-8.306,8.306
						h-9.238c-4.587,0-8.306-3.718-8.306-8.306v-31.575c0-25.578,20.735-46.314,46.314-46.314h57.24
						c25.579,0,46.314,20.735,46.314,46.314v31.575C2225.129,1452.052,2221.411,1455.771,2216.824,1455.771z"/>
					<path style="fill:#FFFFFF;" d="M2228.274,1463.223h-156.157c-9.569,0-17.326,7.757-17.326,17.326v119.844
						c0,9.569,7.757,17.327,17.326,17.327h156.157c9.569,0,17.327-7.758,17.327-17.327v-119.844
						C2245.6,1470.98,2237.843,1463.223,2228.274,1463.223z M2172.538,1579.054c0.97,4.037-2.09,7.919-6.242,7.919h-32.201
						c-4.152,0-7.211-3.882-6.242-7.92l7.514-31.277c-8.87-5.302-14.668-15.213-14.075-26.429
						c0.767-14.525,12.537-26.416,27.055-27.318c16.824-1.045,30.794,12.29,30.794,28.888c0,10.565-5.663,19.805-14.117,24.859
						L2172.538,1579.054z"/>
				</g>
			</g>
			<g>
				
					<linearGradient id="SVGID_00000158733550247132096890000003755106300535140761_" gradientUnits="userSpaceOnUse" x1="2551.4124" y1="1286.4871" x2="2389.7458" y2="2044.2965">
					<stop  offset="0" style="stop-color:#FDF53F"/>
					<stop  offset="1" style="stop-color:#D93C65"/>
				</linearGradient>
				<path style="fill:url(#SVGID_00000158733550247132096890000003755106300535140761_);" d="M2642.608,1660.277h-273.25
					c-13.375,0-24.218-10.843-24.218-24.218v-273.25c0-13.375,10.843-24.218,24.218-24.218l270.301,7.671
					c15.127,0.429,27.167,12.816,27.167,27.949v261.848C2666.826,1649.434,2655.983,1660.277,2642.608,1660.277z"/>
				<g style="opacity:0.79;">
					<path style="fill:#FFFFFF;" d="M2535.11,1594.997c0,4.275-3.466,7.74-7.74,7.74h-47.247c-4.275,0-7.74-3.465-7.74-7.74v-2.441
						c0-4.275,3.466-7.741,7.74-7.741h47.247c4.275,0,7.74,3.466,7.74,7.741V1594.997z"/>
					<path style="fill:#FFFFFF;" d="M2529.136,1616.61c0,3.886-3.15,7.037-7.037,7.037h-36.706c-3.886,0-7.037-3.151-7.037-7.037
						v-0.861c0-3.886,3.15-7.037,7.037-7.037h36.706c3.886,0,7.037,3.151,7.037,7.037V1616.61z"/>
					<g>
						<path style="fill:#FFFFFF;" d="M2489.794,1537.932c8.431,35.026,8.429,34.936,8.429,34.936h15.481
							c0,0-0.001-0.661,8.563-36.234C2507.669,1542.542,2496.281,1540.698,2489.794,1537.932z"/>
						<path style="fill:#FFFFFF;" d="M2505.964,1432.275c-31.091,0-56.295,25.204-56.295,56.295c0,10.227,2.742,19.799,7.519,28.053
							c7.385,12.758,12.45,26.925,14.757,41.485c0.273,1.724,0.547,3.375,0.819,5.1c0.891,5.619,5.723,9.66,11.412,9.66h8.384
							c-0.562-2.987-6.06-24.605-9.739-39.845c-0.282-1.168,0.208-1.645,1.219-2.292c1.011-0.646,2.321-0.211,3.264,0.534
							c0.603,0.47,15.282,11.726,37.756-0.098c0.976-0.517,2.167-0.318,3.04,0.362c0.873,0.679,1.267,0.374,1.007,1.448
							c-3.68,15.25-9.181,36.905-9.738,39.891h8.383c5.677,0,10.524-4.053,11.411-9.66c0.272-1.725,0.546-3.412,0.819-5.136
							c2.327-14.693,7.303-28.592,14.757-41.466c4.777-8.254,7.519-17.818,7.519-28.044
							C2562.259,1457.47,2537.055,1432.275,2505.964,1432.275z"/>
					</g>
					<path style="fill:#FFFFFF;" d="M2514.201,1408.926c0,3.109-2.52,5.63-5.629,5.63h-0.689c-3.109,0-5.629-2.52-5.629-5.63
						v-33.546c0-3.109,2.52-5.63,5.629-5.63h0.689c3.109,0,5.629,2.52,5.629,5.63V1408.926z"/>
					<g>
						<path style="fill:#FFFFFF;" d="M2438.786,1447.874l-28.473-18.171c-2.621-1.672-6.101-0.904-7.774,1.717
							c-1.673,2.621-0.904,6.101,1.717,7.774l28.473,18.171c2.621,1.673,6.101,0.904,7.773-1.717
							C2442.176,1453.027,2441.407,1449.546,2438.786,1447.874z"/>
						<path style="fill:#FFFFFF;" d="M2430.158,1483.555l-33.754-1.222c-3.108-0.112-5.718,2.315-5.83,5.422
							c-0.112,3.107,2.315,5.717,5.421,5.829l33.756,1.223c3.108,0.112,5.718-2.315,5.83-5.422
							C2435.692,1486.278,2433.265,1483.667,2430.158,1483.555z"/>
						<path style="fill:#FFFFFF;" d="M2581.77,1483.555l33.754-1.222c3.108-0.112,5.718,2.315,5.83,5.422
							c0.112,3.107-2.315,5.717-5.421,5.829l-33.756,1.223c-3.108,0.112-5.718-2.315-5.83-5.422
							C2576.235,1486.278,2578.662,1483.667,2581.77,1483.555z"/>
						<path style="fill:#FFFFFF;" d="M2609.388,1431.42c-1.673-2.621-5.153-3.389-7.774-1.717l-28.473,18.171
							c-2.621,1.673-3.389,5.153-1.717,7.774s5.153,3.389,7.773,1.717l28.473-18.171
							C2610.292,1437.521,2611.061,1434.041,2609.388,1431.42z"/>
					</g>
					<g>
						<path style="fill:#FFFFFF;" d="M2454.244,1389.312c-1.381-2.786-4.759-3.924-7.544-2.542c-2.786,1.381-3.924,4.76-2.543,7.545
							l15.01,30.259c1.381,2.786,4.76,3.924,7.544,2.542c2.786-1.382,3.924-4.76,2.542-7.545L2454.244,1389.312z"/>
						<path style="fill:#FFFFFF;" d="M2565.227,1386.77c-2.784-1.382-6.163-0.244-7.544,2.542l-15.01,30.259
							c-1.381,2.785-0.243,6.163,2.543,7.545c2.784,1.382,6.163,0.244,7.544-2.542l15.01-30.259
							C2569.151,1391.529,2568.013,1388.151,2565.227,1386.77z"/>
					</g>
				</g>
			</g>
			<g>
				
					<linearGradient id="SVGID_00000084531523249251297420000011293609346634897560_" gradientUnits="userSpaceOnUse" x1="2710.9976" y1="1502.5713" x2="3032.6829" y2="1502.5713">
					<stop  offset="0" style="stop-color:#B37CFF"/>
					<stop  offset="1" style="stop-color:#F895E7"/>
				</linearGradient>
				<path style="fill:url(#SVGID_00000084531523249251297420000011293609346634897560_);" d="M3008.465,1663.414h-273.25
					c-13.375,0-24.218-10.843-24.218-24.218v-273.25c0-13.375,10.843-24.218,24.218-24.218l264.436,10.705
					c18.455,0.747,33.031,15.926,33.031,34.396v252.367C3032.683,1652.571,3021.84,1663.414,3008.465,1663.414z"/>
				<g style="opacity:0.83;">
					<path style="fill:#FFFFFF;" d="M2886.524,1567.002c0,13.021-10.556,23.577-23.577,23.577l0,0
						c-13.021,0-23.577-10.556-23.577-23.577v-161.674c0-13.021,10.556-23.577,23.577-23.577l0,0
						c13.021,0,23.577,10.556,23.577,23.577V1567.002z"/>
					
						<ellipse transform="matrix(0.7071 -0.7071 0.7071 0.7071 -276.3973 2488.8259)" style="fill:#FFFFFF;" cx="2866.08" cy="1578.054" rx="45.338" ry="45.338"/>
					<g>
						<path style="fill:#FFFFFF;" d="M2937.047,1410.797c0,4.42-3.583,8.004-8.004,8.004h-14.306c-4.42,0-8.004-3.584-8.004-8.004
							v-0.833c0-4.42,3.583-8.004,8.004-8.004h14.306c4.421,0,8.004,3.583,8.004,8.004V1410.797z"/>
						<path style="fill:#FFFFFF;" d="M2937.047,1447.847c0,4.421-3.583,8.004-8.004,8.004h-14.306c-4.42,0-8.004-3.583-8.004-8.004
							v-0.833c0-4.421,3.583-8.004,8.004-8.004h14.306c4.421,0,8.004,3.583,8.004,8.004V1447.847z"/>
						<path style="fill:#FFFFFF;" d="M2937.047,1484.897c0,4.42-3.583,8.004-8.004,8.004h-14.306c-4.42,0-8.004-3.583-8.004-8.004
							v-0.833c0-4.42,3.583-8.004,8.004-8.004h14.306c4.421,0,8.004,3.583,8.004,8.004V1484.897z"/>
						<path style="fill:#FFFFFF;" d="M2937.047,1525.316c0,4.421-3.583,8.004-8.004,8.004h-14.306c-4.42,0-8.004-3.583-8.004-8.004
							v-0.833c0-4.421,3.583-8.004,8.004-8.004h14.306c4.421,0,8.004,3.583,8.004,8.004V1525.316z"/>
					</g>
				</g>
			</g>
			<g>
				<polygon style="opacity:0.22;fill:#FFFFFF;" points="2844.521,2155.403 2414.837,1720.289 1951.175,2155.403 2008.74,2155.403 
					2008.74,2923.354 2780.058,2923.354 2780.058,2155.403 				"/>
				<path style="fill:#FFFFFF;" d="M2781.742,2930.09h-771.318c-4.651,0-8.421-3.77-8.421-8.421v-759.53h-50.827
					c-3.454,0-6.559-2.11-7.83-5.322c-1.271-3.212-0.451-6.875,2.067-9.238l463.661-435.115c3.334-3.125,8.549-3.026,11.754,0.222
					l429.685,435.115c2.386,2.418,3.087,6.031,1.778,9.164c-1.309,3.135-4.373,5.174-7.769,5.174h-54.358v759.53
					C2790.163,2926.321,2786.393,2930.09,2781.742,2930.09z M2018.844,2913.249h754.478v-759.53c0-4.651,3.77-8.42,8.42-8.42h42.629
					l-409.758-414.937l-442.159,414.937h37.97c4.651,0,8.421,3.77,8.421,8.42V2913.249z"/>
				<g>
					<path style="opacity:0.73;fill:#FFFFFF;" d="M2405.272,2827.616c-159.396,0-289.073-129.678-289.073-289.076
						c0-159.396,129.678-289.073,289.073-289.073c159.397,0,289.074,129.678,289.074,289.073
						C2694.346,2697.938,2564.668,2827.616,2405.272,2827.616z M2405.272,2340.123c-109.407,0-198.418,89.009-198.418,198.418
						c0,109.409,89.01,198.42,198.418,198.42c109.409,0,198.419-89.011,198.419-198.42
						C2603.691,2429.132,2514.681,2340.123,2405.272,2340.123z"/>
					
						<linearGradient id="SVGID_00000084519450315238149660000001410976114957959868_" gradientUnits="userSpaceOnUse" x1="2684.3525" y1="2464.6096" x2="2634.9597" y2="2593.791">
						<stop  offset="0" style="stop-color:#FDF53F"/>
						<stop  offset="1" style="stop-color:#D93C65"/>
					</linearGradient>
					<path style="fill:url(#SVGID_00000084519450315238149660000001410976114957959868_);" d="M2693.539,2516.915l-90.402,6.783
						c0.364,4.901,0.554,9.85,0.554,14.843c0,23.642-4.164,46.327-11.784,67.372l85.272,30.781
						c11.102-30.659,17.167-63.71,17.167-98.153C2694.346,2531.267,2694.07,2524.056,2693.539,2516.915z"/>
					
						<linearGradient id="SVGID_00000115509476662682744490000002263187023419577276_" gradientUnits="userSpaceOnUse" x1="2600.9536" y1="2326.6821" x2="2016.6947" y2="2959.2261">
						<stop  offset="0" style="stop-color:#A737D5"/>
						<stop  offset="1" style="stop-color:#EF497A"/>
					</linearGradient>
					<path style="fill:url(#SVGID_00000115509476662682744490000002263187023419577276_);" d="M2405.272,2736.961
						c-109.407,0-198.418-89.011-198.418-198.42c0-109.409,89.01-198.418,198.418-198.418c16.669,0,32.859,2.077,48.338,5.966
						l22.085-87.93c-22.551-5.666-46.14-8.692-70.424-8.692c-159.396,0-289.073,129.678-289.073,289.073
						c0,159.398,129.678,289.076,289.073,289.076c124.954,0,231.633-79.696,271.907-190.923l-85.272-30.781
						C2564.263,2682.258,2491.039,2736.961,2405.272,2736.961z"/>
					
						<linearGradient id="SVGID_00000068653179846237004730000008958289435059499668_" gradientUnits="userSpaceOnUse" x1="2783.7686" y1="2250.7288" x2="2521.6069" y2="2672.4663">
						<stop  offset="0" style="stop-color:#FDF53F"/>
						<stop  offset="1" style="stop-color:#D93C65"/>
					</linearGradient>
					<path style="fill:url(#SVGID_00000068653179846237004730000008958289435059499668_);" d="M2603.137,2523.698l90.402-6.783
						c-2.779-37.399-12.711-72.834-28.421-104.953l-81.489,39.697C2594.411,2473.704,2601.229,2498.027,2603.137,2523.698z"/>
				</g>
				<g>
					<path style="opacity:0.61;fill:#FFFFFF;" d="M2331.201,2140.92h-279.877c-1.197,0-2.167-0.97-2.167-2.167v-13.602
						c0-1.197,0.97-2.167,2.167-2.167h279.877c1.197,0,2.167,0.97,2.167,2.167v13.602
						C2333.368,2139.95,2332.398,2140.92,2331.201,2140.92z"/>
					<path style="opacity:0.61;fill:#FFFFFF;" d="M2249.802,2177.665h-198.477c-1.197,0-2.167-0.97-2.167-2.167v-13.602
						c0-1.197,0.97-2.167,2.167-2.167h198.477c1.197,0,2.167,0.97,2.167,2.167v13.602
						C2251.968,2176.695,2250.998,2177.665,2249.802,2177.665z"/>
					<path style="fill:#FFFFFF;" d="M2378.074,2284.886c-0.857,0-1.59-0.651-1.674-1.523l-14.316-148.17h-16.524
						c-0.931,0-1.684-0.753-1.684-1.684s0.753-1.684,1.684-1.684h18.053c0.867,0,1.594,0.659,1.676,1.523l14.463,149.693
						c0.091,0.924-0.589,1.748-1.515,1.837C2378.183,2284.883,2378.129,2284.886,2378.074,2284.886z"/>
				</g>
				<g>
					<path style="opacity:0.61;fill:#FFFFFF;" d="M2758.805,2205.085h-191.708c-1.197,0-2.167-0.97-2.167-2.167v-11.497
						c0-1.197,0.97-2.167,2.167-2.167h191.708c1.197,0,2.167,0.97,2.167,2.167v11.497
						C2760.972,2204.115,2760.002,2205.085,2758.805,2205.085z"/>
					<path style="opacity:0.61;fill:#FFFFFF;" d="M2702.657,2237.518h-135.56c-1.197,0-2.167-0.97-2.167-2.167v-11.497
						c0-1.197,0.97-2.167,2.167-2.167h135.56c1.197,0,2.167,0.97,2.167,2.167v11.497
						C2704.824,2236.548,2703.854,2237.518,2702.657,2237.518z"/>
					<path style="fill:#FFFFFF;" d="M2495.282,2312.987c-0.15,0-0.301-0.02-0.452-0.061c-0.896-0.25-1.421-1.177-1.173-2.074
						l30.667-110.429c0.202-0.729,0.867-1.233,1.623-1.233h21.704c0.931,0,1.684,0.753,1.684,1.684c0,0.931-0.753,1.684-1.684,1.684
						h-20.425l-30.324,109.195C2496.697,2312.498,2496.019,2312.987,2495.282,2312.987z"/>
				</g>
				<g style="opacity:0.75;">
					<path style="fill:#FFFFFF;" d="M2473.362,2490.399h-9.815c-4.874,0-8.824-3.951-8.824-8.824v-33.547
						c0-12.008-9.735-21.743-21.743-21.743h-60.815c-12.008,0-21.743,9.734-21.743,21.743v33.547c0,4.874-3.951,8.824-8.824,8.824
						h-9.815c-4.874,0-8.824-3.951-8.824-8.824v-33.547c0-27.176,22.031-49.206,49.206-49.206h60.815
						c27.176,0,49.207,22.03,49.207,49.206v33.547C2482.187,2486.448,2478.236,2490.399,2473.362,2490.399z"/>
					<path style="fill:#FFFFFF;" d="M2485.528,2498.317h-165.91c-10.167,0-18.409,8.242-18.409,18.408v127.33
						c0,10.167,8.242,18.409,18.409,18.409h165.91c10.167,0,18.409-8.242,18.409-18.409v-127.33
						C2503.936,2506.559,2495.695,2498.317,2485.528,2498.317z M2426.31,2621.382c1.031,4.289-2.22,8.413-6.632,8.413h-34.212
						c-4.412,0-7.662-4.124-6.632-8.414l7.983-33.231c-9.424-5.634-15.584-16.163-14.955-28.079
						c0.815-15.433,13.321-28.066,28.745-29.024c17.875-1.11,32.717,13.057,32.717,30.692c0,11.225-6.017,21.042-14.999,26.412
						L2426.31,2621.382z"/>
				</g>
			</g>
		</g>
		<g>
			<g>
				
					<linearGradient id="SVGID_00000052816781078095218840000000161470992222526089_" gradientUnits="userSpaceOnUse" x1="3917.1541" y1="1708.4116" x2="3998.26" y2="1940.1437" gradientTransform="matrix(1 0 0 1 -1452.8771 0)">
					<stop  offset="0" style="stop-color:#F9B776"/>
					<stop  offset="1" style="stop-color:#F47960"/>
				</linearGradient>
				<path style="fill:url(#SVGID_00000052816781078095218840000000161470992222526089_);" d="M2500.281,1832.715
					c-1.248,3.968,13.205,10.01,21.715-6.219c0.298-7.777,5.028-41.098,0.38-47.434c-24.752-33.746-72.741-76.048-72.741-76.048
					c-8.111,8.003-1.429,15.865-1.429,15.865l23.28,24.251c-4.87,8.8-10.809,16.228-13.593,26.871
					c-2.109,8.06-0.819,16.674,3.252,24.01c4.087,7.362,9.662,16.932,14.933,24.422
					C2486.055,1832.609,2500.281,1832.715,2500.281,1832.715z"/>
				
					<linearGradient id="SVGID_00000003103154576790888860000016700703812271049378_" gradientUnits="userSpaceOnUse" x1="3979.4609" y1="1856.465" x2="3918.3677" y2="1733.2246" gradientTransform="matrix(1 0 0 1 -1452.8771 0)">
					<stop  offset="0" style="stop-color:#F9B776"/>
					<stop  offset="1" style="stop-color:#F47960"/>
				</linearGradient>
				<path style="fill:url(#SVGID_00000003103154576790888860000016700703812271049378_);" d="M2481.669,1758.867l21.215,17.984
					l6.661,17.905l-18.916,20.984c0,0-6.359-35.528-11.086-43.218C2474.816,1764.833,2477.267,1761.115,2481.669,1758.867z"/>
			</g>
			<g>
				
					<linearGradient id="SVGID_00000015345901736604865990000015562655067136273563_" gradientUnits="userSpaceOnUse" x1="768.9899" y1="3115.24" x2="251.4646" y2="3678.1631" gradientTransform="matrix(-1 0 0 1 3522.405 0)">
					<stop  offset="0" style="stop-color:#CB236D"/>
					<stop  offset="1" style="stop-color:#4C246D"/>
				</linearGradient>
				<path style="fill:url(#SVGID_00000015345901736604865990000015562655067136273563_);" d="M2917.006,3157.174
					c0,0,5.36,30.342,7.987,60.377c1.027,11.738-8.022,21.929-19.796,22.421c-39.998,1.665-125.555,4.904-156.255,3.534
					c-4.615-0.206-7.633-4.93-5.925-9.223c1.432-3.596,4.193-6.505,7.71-8.121l141.324-64.952L2917.006,3157.174z"/>
				
					<linearGradient id="SVGID_00000152946014871134759200000016929204781735557015_" gradientUnits="userSpaceOnUse" x1="601.0088" y1="3157.0488" x2="646.9779" y2="3157.0488" gradientTransform="matrix(-1 0 0 1 3522.405 0)">
					<stop  offset="0" style="stop-color:#F9B776"/>
					<stop  offset="1" style="stop-color:#F47960"/>
				</linearGradient>
				<path style="fill:url(#SVGID_00000152946014871134759200000016929204781735557015_);" d="M2921.396,3139.347l-4.306,36.292
					c0,0-24.757,11.525-41.663-1.452l10.252-40.445L2921.396,3139.347z"/>
				
					<linearGradient id="SVGID_00000179633167486089592110000014470628593728852143_" gradientUnits="userSpaceOnUse" x1="-1370.8822" y1="8387.7539" x2="-1694.2289" y2="9317.377" gradientTransform="matrix(-1 0 0 1 3522.405 0)">
					<stop  offset="0" style="stop-color:#CB236D"/>
					<stop  offset="1" style="stop-color:#4C246D"/>
				</linearGradient>
				<path style="fill:url(#SVGID_00000179633167486089592110000014470628593728852143_);" d="M2918.16,2457.032
					c1.86,9.477,9.984,472.956-39.558,680.656c-0.808,3.389,0.91,6.882,4.135,8.2c7.598,3.104,22.495,7.601,40.348,8.2
					c5.529,0.186,10.486-3.407,12.046-8.715c14.161-48.19,82.021-289.634,90.874-520.278c9.891-257.722,0-8.775,0-8.775
					l-5.802-159.308L2918.16,2457.032z"/>
				
					<linearGradient id="SVGID_00000014608288408951665350000012857468490287801757_" gradientUnits="userSpaceOnUse" x1="652.8903" y1="3008.5059" x2="135.3678" y2="3571.4255" gradientTransform="matrix(-1 0 0 1 3522.405 0)">
					<stop  offset="0" style="stop-color:#CB236D"/>
					<stop  offset="1" style="stop-color:#4C246D"/>
				</linearGradient>
				<path style="fill:url(#SVGID_00000014608288408951665350000012857468490287801757_);" d="M3079.575,3173.003
					c0,0,8.531,15.318,16.792,56.02c1.491,7.351-3.645,14.386-11.11,15.119c-13.207,1.299-33.539,2.969-49.825,2.857
					c-7.508-0.052-13.367-6.589-12.462-14.042c1.803-14.857,7.424-39.232,24.786-58.23L3079.575,3173.003z"/>
				
					<linearGradient id="SVGID_00000045604421074357894150000014809515862758513792_" gradientUnits="userSpaceOnUse" x1="435.3363" y1="3154.6919" x2="475.0266" y2="3154.6919" gradientTransform="matrix(-1 0 0 1 3522.405 0)">
					<stop  offset="0" style="stop-color:#F9B776"/>
					<stop  offset="1" style="stop-color:#F47960"/>
				</linearGradient>
				<path style="fill:url(#SVGID_00000045604421074357894150000014809515862758513792_);" d="M3087.069,3126.323l-10.062,54.884
					c0,0-9.949,7.401-29.629,2.036l4.802-59.052L3087.069,3126.323z"/>
				
					<linearGradient id="SVGID_00000124863609742780478950000018254120609238128529_" gradientUnits="userSpaceOnUse" x1="-1482.4408" y1="8348.9482" x2="-1805.788" y2="9278.5713" gradientTransform="matrix(-1 0 0 1 3522.405 0)">
					<stop  offset="0" style="stop-color:#CB236D"/>
					<stop  offset="1" style="stop-color:#4C246D"/>
				</linearGradient>
				<path style="fill:url(#SVGID_00000124863609742780478950000018254120609238128529_);" d="M3114.25,2471.255
					c40.519,244.536-8.789,604.389-25.419,674.821c-1.018,4.312-4.499,7.616-8.869,8.34c-7.423,1.231-19.644,2.234-31.692-1.265
					c-4.151-1.205-7.067-4.949-7.237-9.27c-2.231-56.942,1.784-406.512-35.97-544.663c-1.913-7.001-6.188-13.107-12.104-17.313
					l-73.279-52.095l-5.618-84.207L3114.25,2471.255z"/>
				<g>
					
						<linearGradient id="SVGID_00000007426594625121920550000000260689354572284071_" gradientUnits="userSpaceOnUse" x1="2987.2646" y1="2007.3521" x2="2788.5405" y2="2657.4138">
						<stop  offset="0" style="stop-color:#FDF53F"/>
						<stop  offset="1" style="stop-color:#D93C65"/>
					</linearGradient>
					<path style="fill:url(#SVGID_00000007426594625121920550000000260689354572284071_);" d="M2856.062,2007.908
						c121.428-2.006,255.409,31.883,255.409,31.883c36.196,211.197,6.33,454.799,6.33,454.799
						c-94.006,24.653-200.051-15.072-200.051-15.072c-15.625-88.276-88.524-336.712-88.524-336.712
						c-59.329-7.363-108.203-24.481-148.452-47.112c30.701-35.586,45.174-80.868,51.46-107.636
						C2775.166,2001.401,2818.609,2008.527,2856.062,2007.908z"/>
					
						<linearGradient id="SVGID_00000018208861275964506040000017163665632416307851_" gradientUnits="userSpaceOnUse" x1="3986.4766" y1="1684.1484" x2="4067.583" y2="1915.8818" gradientTransform="matrix(1 0 0 1 -1452.8771 0)">
						<stop  offset="0" style="stop-color:#F9B776"/>
						<stop  offset="1" style="stop-color:#F47960"/>
					</linearGradient>
					<path style="fill:url(#SVGID_00000018208861275964506040000017163665632416307851_);" d="M2497.386,1829.051
						c11.928-14.407,27.025-7.592,27.025-7.592c17.869,75.482,111.564,136.683,207.822,166.599
						c-6.286,26.768-20.759,72.05-51.46,107.636C2521.024,2005.874,2497.386,1829.051,2497.386,1829.051z"/>
				</g>
				
					<linearGradient id="SVGID_00000132787973435828625690000006041582020295960723_" gradientUnits="userSpaceOnUse" x1="3190.0437" y1="2068.783" x2="2991.3191" y2="2718.8464">
					<stop  offset="0" style="stop-color:#FDF53F"/>
					<stop  offset="1" style="stop-color:#D93C65"/>
				</linearGradient>
				<path style="fill:url(#SVGID_00000132787973435828625690000006041582020295960723_);" d="M3064.896,2157.369l46.574-117.578
					c0,0,113.421,77.064,132.074,174.773c-21.431,1.578-60.428,7.153-98.599,26.426
					C3136.558,2194.854,3064.896,2157.369,3064.896,2157.369z"/>
				
					<linearGradient id="SVGID_00000177484008020757628530000013430614203582006152_" gradientUnits="userSpaceOnUse" x1="504.4855" y1="1972.7002" x2="621.989" y2="1972.7002" gradientTransform="matrix(-1 0 0 1 3522.405 0)">
					<stop  offset="0" style="stop-color:#F9B776"/>
					<stop  offset="1" style="stop-color:#F47960"/>
				</linearGradient>
				<path style="fill:url(#SVGID_00000177484008020757628530000013430614203582006152_);" d="M2979.058,1909.327l38.637,111.735
					c0.639,1.85-0.121,3.9-1.835,4.848c-10.532,5.823-48.476,22.654-94.203-6.337c-4.763-3.02-8.006-7.945-8.729-13.54
					l-12.512-96.706H2979.058z"/>
				<g>
					
						<linearGradient id="SVGID_00000013172662632147014780000001714304757582885785_" gradientUnits="userSpaceOnUse" x1="-5138.3828" y1="-965.8585" x2="-5182.293" y2="-1110.6837" gradientTransform="matrix(-0.746 -0.6659 -0.6659 0.746 -1603.9303 -803.1727)">
						<stop  offset="0" style="stop-color:#F9B776"/>
						<stop  offset="1" style="stop-color:#F47960"/>
					</linearGradient>
					<path style="fill:url(#SVGID_00000013172662632147014780000001714304757582885785_);" d="M2894.991,1805.859
						c0,0-42.427,79.864-36.989,112.125c5.438,32.26,58.02,29.944,103.936,3.743l32.085-86.235L2894.991,1805.859z"/>
					
						<linearGradient id="SVGID_00000159432735467886568270000000170836538497100470_" gradientUnits="userSpaceOnUse" x1="-5177.9985" y1="-1218.1957" x2="-5141.2686" y2="-1008.6961" gradientTransform="matrix(-0.746 -0.6659 -0.6659 0.746 -1603.9303 -803.1727)">
						<stop  offset="0" style="stop-color:#2B3582"/>
						<stop  offset="1" style="stop-color:#150E42"/>
					</linearGradient>
					<path style="fill:url(#SVGID_00000159432735467886568270000000170836538497100470_);" d="M2959.908,1879.377
						c-1.866-0.827-2.554-3.11-1.437-4.818c3.399-5.193,9.771-15.786,11.804-25.061c0,0,7.627-4.886-19.413-11.357
						c-27.039-6.473-67.362-16.519-75.837-39.534c-8.264-22.44,13.448-78.872,48.087-33.907c1.318,1.711,3.899,1.748,5.215,0.036
						c5.679-7.391,20.608-22.731,41.335-13.431c19.396,8.703,21.581,22.916,21.314,30.08c-0.078,2.106,1.806,3.745,3.877,3.35
						c9.807-1.87,33.34-3.476,44.324,20.664c9.047,19.885,3.167,31.141-2.188,36.647c-1.736,1.783-0.976,4.721,1.405,5.449
						c6.444,1.973,14.767,7.438,13.934,22.538c-1.152,20.875-24.491,19.035-31.136,18.084c-1.09-0.156-2.186,0.218-2.924,1.033
						c-5.698,6.306-31.368,33.078-59.153,36.305c-2.406,0.279-4.27-2.097-3.482-4.387l12.024-34.952
						c0.558-1.623-0.219-3.404-1.788-4.099L2959.908,1879.377z"/>
					
						<linearGradient id="SVGID_00000141436287240401868620000002776372074514589617_" gradientUnits="userSpaceOnUse" x1="-5183.2695" y1="-966.5331" x2="-5222.7764" y2="-1096.8347" gradientTransform="matrix(-0.746 -0.6659 -0.6659 0.746 -1603.9303 -803.1727)">
						<stop  offset="0" style="stop-color:#F9B776"/>
						<stop  offset="1" style="stop-color:#F47960"/>
					</linearGradient>
					<path style="fill:url(#SVGID_00000141436287240401868620000002776372074514589617_);" d="M2955.075,1884.339
						c0,0,30.208-20.727,32.415-3.273c2.207,17.453-27.203,25.282-41.769,18.775L2955.075,1884.339z"/>
				</g>
				
					<linearGradient id="SVGID_00000106118249982461066080000004537771106726783917_" gradientUnits="userSpaceOnUse" x1="-5692.5845" y1="2836.6726" x2="-5788.1128" y2="2150.6035" gradientTransform="matrix(-1 0 0 1 -2576.2749 0)">
					<stop  offset="0" style="stop-color:#F9B776"/>
					<stop  offset="1" style="stop-color:#F47960"/>
				</linearGradient>
				<path style="fill:url(#SVGID_00000106118249982461066080000004537771106726783917_);" d="M3144.946,2240.99
					c0,0,39.643,178.843,3.733,279.387c44.023,20.412,35.891,16.564,35.891,16.564s87.092-254.464,58.975-322.377
					C3188.11,2208.683,3160.612,2223.578,3144.946,2240.99z"/>
				
					<linearGradient id="SVGID_00000011713119964494346830000000473899498138222780_" gradientUnits="userSpaceOnUse" x1="-5703.96" y1="2770.6758" x2="-5780.1914" y2="2223.1912" gradientTransform="matrix(-1 0 0 1 -2576.2749 0)">
					<stop  offset="0" style="stop-color:#F9B776"/>
					<stop  offset="1" style="stop-color:#F47960"/>
				</linearGradient>
				<path style="fill:url(#SVGID_00000011713119964494346830000000473899498138222780_);" d="M3148.679,2520.377
					c0,0-22.686,29.361-20.871,41.056c1.814,11.695,2.248,16.459,2.248,16.459s11.399-7.796,10.681-17.759
					c-1.585,31.619-12.167,67.569-2.545,65.837c9.622-1.733,59.433-47.646,48.171-96.59
					C3160.808,2511.623,3153.645,2513.553,3148.679,2520.377z"/>
			</g>
		</g>
	</g>
</g>
</svg>
